<svg width="24" height="24" viewBox="0 0 24 24" fill="none" xmlns="http://www.w3.org/2000/svg">
<path d="M7.1978 9.48704L11.0305 3.22679C11.1424 3.04012 11.2842 2.90329 11.456 2.81629C11.6277 2.72929 11.809 2.68579 11.9998 2.68579C12.1905 2.68579 12.3718 2.72929 12.5438 2.81629C12.7158 2.90329 12.8577 3.04012 12.9695 3.22679L16.8023 9.48704C16.9181 9.67604 16.976 9.87454 16.976 10.0825C16.976 10.2905 16.9285 10.4795 16.8333 10.6495C16.738 10.8194 16.6051 10.9571 16.4348 11.0628C16.2645 11.1685 16.0657 11.2213 15.8385 11.2213H8.16154C7.93421 11.2213 7.73529 11.1689 7.5648 11.064C7.3943 10.9592 7.26163 10.821 7.1668 10.6495C7.07163 10.4799 7.02404 10.2914 7.02404 10.084C7.02404 9.87654 7.08196 9.67754 7.1978 9.48704ZM17.6663 22.3648C16.3613 22.3648 15.2514 21.908 14.3365 20.9943C13.4217 20.0808 12.9643 18.9715 12.9643 17.6663C12.9643 16.3613 13.4215 15.2514 14.3358 14.3365C15.2501 13.4217 16.3605 12.9643 17.6668 12.9643C18.973 12.9643 20.0825 13.4215 20.9955 14.3358C21.9084 15.2501 22.3648 16.3605 22.3648 17.6668C22.3648 18.973 21.908 20.0825 20.9943 20.9955C20.0808 21.9084 18.9715 22.3648 17.6663 22.3648ZM2.53979 20.7273V14.6018C2.53979 14.2825 2.64955 14.013 2.86905 13.7935C3.08855 13.574 3.35796 13.4643 3.67729 13.4643H9.8088C10.128 13.4643 10.3973 13.574 10.6168 13.7935C10.8365 14.013 10.9463 14.2825 10.9463 14.6018V20.7273C10.9463 21.0465 10.8365 21.3158 10.6168 21.5353C10.3973 21.755 10.128 21.8648 9.8088 21.8648H3.67729C3.35796 21.8648 3.08855 21.755 2.86905 21.5353C2.64955 21.3158 2.53979 21.0465 2.53979 20.7273ZM17.6675 20.0898C18.3435 20.0898 18.9162 19.855 19.3855 19.3855C19.855 18.9162 20.0898 18.3435 20.0898 17.6675C20.0898 16.9914 19.855 16.4176 19.3855 15.9463C18.9162 15.475 18.3435 15.2393 17.6675 15.2393C16.9914 15.2393 16.4176 15.475 15.9463 15.9463C15.475 16.4176 15.2393 16.9914 15.2393 17.6675C15.2393 18.3435 15.475 18.9162 15.9463 19.3855C16.4176 19.855 16.9914 20.0898 17.6675 20.0898ZM4.8148 19.5898H8.6713V15.7393H4.8148V19.5898ZM10.1875 8.94629H13.8125L12 6.00554L10.1875 8.94629Z" fill="#C4C4C4"/>
</svg>
