<svg width="24" height="24" viewBox="0 0 24 24" fill="none" xmlns="http://www.w3.org/2000/svg">
<path d="M21.2033 20.7675C21.058 20.7675 20.9171 20.7395 20.7806 20.6835C20.6439 20.6275 20.5176 20.5415 20.4018 20.4255L18.2871 18.311H8.16755C7.53772 18.311 7.00105 18.0893 6.55755 17.6458C6.11422 17.2023 5.89255 16.6656 5.89255 16.0358V15.0358H16.7908C17.4205 15.0358 17.9571 14.8141 18.4006 14.3708C18.8441 13.9273 19.0658 13.3906 19.0658 12.7608V5.8745H20.0658C20.6955 5.8745 21.2321 6.09626 21.6756 6.53976C22.1191 6.98326 22.3408 7.51984 22.3408 8.1495V19.6108C22.3408 19.9548 22.2259 20.2335 21.9961 20.447C21.7661 20.6607 21.5018 20.7675 21.2033 20.7675ZM3.9343 11.655L4.8283 10.7608H14.7908V3.91025H3.9343V11.655ZM2.7968 15.5343C2.4983 15.5343 2.23405 15.4274 2.00405 15.2138C1.77422 15.0003 1.6593 14.7216 1.6593 14.3778V3.91025C1.6593 3.28059 1.88105 2.74401 2.32455 2.30051C2.76805 1.85701 3.30464 1.63525 3.9343 1.63525H14.7908C15.4205 1.63525 15.9571 1.85701 16.4006 2.30051C16.8441 2.74401 17.0658 3.28059 17.0658 3.91025V10.7608C17.0658 11.3906 16.8441 11.9273 16.4006 12.3708C15.9571 12.8141 15.4205 13.0358 14.7908 13.0358H5.75505L3.59255 15.1925C3.47655 15.3083 3.35122 15.3943 3.21655 15.4503C3.08205 15.5063 2.94214 15.5343 2.7968 15.5343Z" fill="#C4C4C4"/>
</svg>
