<svg width="24" height="24" viewBox="0 0 24 24" fill="none" xmlns="http://www.w3.org/2000/svg">
<path d="M6.07175 18.9283H8.8625V14.0001C8.8625 13.6809 8.97225 13.4115 9.19175 13.1918C9.41142 12.9723 9.68084 12.8626 10 12.8626H14C14.3192 12.8626 14.5886 12.9723 14.8083 13.1918C15.0278 13.4115 15.1375 13.6809 15.1375 14.0001V18.9283H17.9283V10.0358L12 5.58984L6.07175 10.0358V18.9283ZM3.79675 18.9283V10.0358C3.79675 9.67634 3.87659 9.33576 4.03625 9.01409C4.19575 8.69242 4.41842 8.42601 4.70425 8.21484L10.6325 3.76859C11.0343 3.46209 11.4902 3.30884 12 3.30884C12.5098 3.30884 12.9657 3.46209 13.3675 3.76859L19.2958 8.21484C19.5816 8.42601 19.8043 8.69242 19.9638 9.01409C20.1234 9.33576 20.2033 9.67634 20.2033 10.0358V18.9283C20.2033 19.558 19.9815 20.0946 19.538 20.5381C19.0945 20.9816 18.5579 21.2033 17.9283 21.2033H14.0898C13.7704 21.2033 13.501 21.0936 13.2815 20.8741C13.062 20.6544 12.9523 20.385 12.9523 20.0658V15.0478H11.0478V20.0658C11.0478 20.385 10.938 20.6544 10.7185 20.8741C10.499 21.0936 10.2296 21.2033 9.91025 21.2033H6.07175C5.44209 21.2033 4.9055 20.9816 4.462 20.5381C4.0185 20.0946 3.79675 19.558 3.79675 18.9283Z" fill="#C4C4C4"/>
</svg>
