<svg width="242" height="25" viewBox="0 0 242 25" fill="none" xmlns="http://www.w3.org/2000/svg">
<path d="M8.94434 0C12.1478 4.38573e-05 15.4924 1.03431 17.7324 3.43262L18.166 3.93164L18.1719 3.93945C18.3308 4.14523 18.4904 4.35876 18.6035 4.60449C18.7226 4.86319 18.7841 5.1392 18.7842 5.47266C18.784 6.94118 17.3867 7.98828 16.0654 7.98828C15.6161 7.98822 15.2476 7.90263 14.9082 7.73633C14.5798 7.57525 14.2987 7.34819 14.0225 7.10547L14.0098 7.09473C13.1555 6.29141 12.4744 5.73781 11.7227 5.37793C10.9807 5.02286 10.1365 4.84084 8.94434 4.84082C8.12862 4.84086 7.22501 4.99251 6.54492 5.35547C5.88672 5.70688 5.46701 6.23236 5.4668 7.03027C5.46684 7.86773 6.11856 8.44812 7.22656 8.86328C8.30962 9.2689 9.61624 9.42925 10.5059 9.54199H10.5049C12.7602 9.81478 15.1628 10.3508 17.0117 11.5264C18.893 12.7228 20.1885 14.5786 20.1885 17.3975C20.1883 20.1334 19.0064 22.0627 17.1992 23.2881C15.416 24.497 13.0576 25 10.7002 25C6.73978 24.9999 2.07309 23.9148 0.323242 19.6787L0.317383 19.665L0.318359 19.6631C0.209856 19.3747 0.127037 19.0621 0.126953 18.7012C0.126953 17.1264 1.56379 15.9309 3.03613 15.9307C3.84303 15.9307 4.38158 16.2446 4.78125 16.707H4.7832C5.01169 16.9347 5.19251 17.1926 5.36035 17.46C5.52156 17.7168 5.66394 17.9398 5.8584 18.1611L5.86914 18.1738L5.87988 18.1875C6.24913 18.6728 6.7054 19.1386 7.42383 19.4893C8.14766 19.8424 9.17273 20.0956 10.7002 20.0957C11.7056 20.0957 12.7662 19.9475 13.5566 19.5381C13.9458 19.3365 14.2575 19.0787 14.4717 18.7559C14.6837 18.4362 14.8164 18.0265 14.8164 17.4922C14.8162 16.5964 14.0938 15.9687 12.8818 15.5146C11.701 15.0724 10.2811 14.8856 9.32715 14.7568V14.7549C7.20958 14.4832 4.8967 14.015 3.10547 12.9307C1.27752 11.8239 0.000253002 10.0789 0 7.34961C0 4.84781 1.12956 2.98869 2.82812 1.77148C4.51004 0.566455 6.73089 5.79973e-05 8.94434 0ZM62.9141 0C70.1313 1.79188e-05 75.6904 5.35554 75.6904 12.5C75.6904 16.1929 74.3946 19.3269 72.1289 21.5371C69.8642 23.7461 66.6639 25 62.9141 25C59.1499 25 55.9266 23.755 53.6416 21.5508C51.3551 19.3448 50.042 16.2102 50.042 12.5C50.042 5.31895 55.67 0.000104742 62.9141 0ZM145.585 0C152.802 0 158.362 5.35553 158.362 12.5C158.362 16.1929 157.065 19.3269 154.8 21.5371C152.535 23.7461 149.335 25 145.585 25C141.821 25 138.598 23.7551 136.312 21.5508C134.026 19.3448 132.713 16.2102 132.713 12.5C132.713 5.31894 138.341 9.45233e-05 145.585 0ZM174.263 0C181.48 0.000196868 187.04 5.35566 187.04 12.5C187.04 16.1929 185.743 19.3269 183.478 21.5371C181.213 23.7461 178.012 24.9999 174.263 25C170.499 24.9999 167.275 23.7549 164.99 21.5508C162.704 19.3448 161.391 16.2102 161.391 12.5C161.391 5.31898 167.019 0.000140889 174.263 0ZM43.2422 0.286133C44.7657 0.286214 45.9285 1.37223 45.9287 2.86523V22.0391C45.9287 23.5408 44.7896 24.7138 43.2422 24.7139C42.4706 24.7138 41.793 24.4395 41.3076 23.9512C40.823 23.4635 40.5567 22.7897 40.5566 22.0391V15.2705H29.0029V22.0723C29.0024 23.6189 27.8501 24.7135 26.3174 24.7139C24.807 24.7137 23.6627 23.578 23.6621 22.0723V2.86523C23.6623 1.38147 24.7844 0.286306 26.3174 0.286133C27.0786 0.2863 27.7547 0.536779 28.2432 1.00293C28.7333 1.47085 29.0028 2.12567 29.0029 2.86523V10.5889H40.5566V2.86523C40.5567 2.12567 40.8263 1.47085 41.3164 1.00293C41.8049 0.536758 42.4809 0.286222 43.2422 0.286133ZM102.609 0.286133C103.223 0.286208 103.829 0.461017 104.293 0.826172C104.768 1.20017 105.071 1.75936 105.071 2.45215C105.071 2.68648 105.033 2.94367 104.998 3.11914L104.995 3.1377L104.525 3.02344L104.993 3.1377L100.331 22.376V22.3789C99.9921 23.7285 98.7828 24.7139 97.3711 24.7139C96.0353 24.7135 94.6671 23.833 94.3174 22.4443L91.4473 11.3164C90.8868 13.3482 90.336 15.3853 89.7891 17.3906L89.79 17.3926C89.4888 18.5259 89.156 19.506 88.8994 20.5918C88.8044 21.0018 88.7046 21.4317 88.5713 21.8633C88.4649 22.3078 88.2932 22.7495 88.0859 23.1279C87.5484 24.1848 86.5782 24.7139 85.4277 24.7139C83.9938 24.7136 82.777 23.769 82.4365 22.376L82.4355 22.3721L77.9014 3.16602L77.8975 3.15039V3.14844C77.8623 2.9729 77.8252 2.71693 77.8252 2.4834C77.8253 1.77264 78.1096 1.20224 78.5889 0.820312C79.0548 0.449358 79.6657 0.286133 80.2871 0.286133C81.0757 0.286204 81.7594 0.526083 82.3018 0.960938C82.7729 1.33893 83.1199 1.84888 83.3428 2.43555L83.4307 2.69141V2.69531C83.9172 4.31011 84.213 6.0343 84.5586 7.66113L85.7266 13.0586L88.4736 2.49023L88.4766 2.48242C88.8585 1.11346 90.0511 0.286538 91.4629 0.286133C92.9187 0.286133 93.903 1.18339 94.373 2.40723L94.376 2.41602C94.9611 4.0343 95.293 5.77097 95.6982 7.38574L96.708 11.2041C96.8769 11.8392 97.0494 12.4749 97.2207 13.1123L99.4229 2.76562L99.4238 2.75879C99.7641 1.25436 101.057 0.286208 102.609 0.286133ZM121.667 0.286133C124.156 0.286279 126.295 0.839622 127.819 2.11133C129.359 3.39601 130.195 5.35116 130.195 7.98535C130.195 9.6526 129.856 11.1886 129.06 12.4473C128.35 13.5686 127.295 14.4389 125.863 14.9873C126.13 15.438 126.397 15.889 126.666 16.3389L127.793 18.1934V18.1953C128.387 19.1638 129.072 20.15 129.647 21.1826L129.887 21.6289L129.89 21.6338C130.042 21.9375 130.26 22.3537 130.26 22.8652C130.26 23.549 129.934 24.0408 129.464 24.3379C129.021 24.6179 128.473 24.7138 127.989 24.7139C126.467 24.7139 125.084 23.8534 124.273 22.6963L124.267 22.6885C123.935 22.1935 123.648 21.6842 123.376 21.1895C123.101 20.6895 122.843 20.2095 122.562 19.7432C121.748 18.3921 120.908 17.072 120.059 15.7158H116.176V22.0723C116.175 23.619 115.024 24.7136 113.491 24.7139C112.724 24.7139 112.053 24.45 111.572 23.9668C111.093 23.4845 110.837 22.8182 110.837 22.0723V4.4873C110.837 3.24389 111.271 2.1827 112.055 1.43359C112.837 0.686663 113.93 0.286268 115.183 0.286133H121.667ZM213.383 0.286133C214.401 0.286179 215.301 0.625746 215.948 1.24707C216.598 1.87007 216.962 2.74663 216.962 3.75586V22.1348C216.962 23.6183 215.811 24.7133 214.342 24.7139C212.872 24.7139 211.719 23.6187 211.719 22.1348V10.0166L207.001 22.6523V22.6543C206.548 23.8578 205.313 24.7138 204.025 24.7139C202.924 24.7137 202.076 24.2083 201.484 23.3242L201.479 23.3164C201.233 22.9301 201.055 22.5048 200.904 22.1748L200.897 22.1611C200.73 21.7608 200.598 21.3615 200.471 20.9824V20.9814L198.944 16.8994C198.1 14.6801 197.254 12.4471 196.397 10.209V22.1348C196.397 23.6185 195.244 24.7135 193.775 24.7139C192.296 24.7139 191.186 23.6092 191.186 22.1348V3.69238C191.186 2.60429 191.566 1.73113 192.259 1.1377C192.941 0.553347 193.872 0.286171 194.893 0.286133C195.859 0.286193 196.694 0.541065 197.383 1.02539C198.068 1.50752 198.58 2.19747 198.942 3.02246L198.944 3.02539C199.715 4.81633 200.337 6.69922 201.028 8.51367L201.908 10.8535C202.625 12.7728 203.324 14.6939 204.003 16.6143C205.458 12.6662 206.947 8.70529 208.361 4.73926H208.362C208.788 3.54702 209.213 2.41839 209.95 1.60449C210.722 0.753078 211.79 0.286149 213.383 0.286133ZM239.664 0.286133C240.368 0.286133 240.967 0.527126 241.386 0.970703C241.8 1.41001 241.999 2.0053 241.999 2.64355C241.999 3.69145 241.631 4.55351 241.042 5.34668L241.037 5.35254C240.39 6.19056 239.678 6.99254 238.939 7.76074L238.94 7.7627C238.585 8.16435 238.223 8.55766 237.864 8.94629C237.505 9.33617 237.149 9.72249 236.802 10.1152L236.801 10.1162C233.866 13.4216 230.92 16.662 228.016 20H239.664C241.031 20 241.999 21.0577 241.999 22.3564C241.999 23.6556 241.032 24.7139 239.664 24.7139H222.867C222.152 24.7138 221.547 24.4509 221.125 23.9893C220.708 23.5331 220.501 22.9173 220.501 22.2617C220.501 21.1887 220.833 20.358 221.46 19.5254L221.464 19.5205C222.749 17.8568 224.336 16.3325 225.667 14.8223L225.67 14.8193C228.625 11.5236 231.552 8.19799 234.453 4.87207H223.314C222.643 4.87205 222.046 4.64149 221.615 4.21777C221.184 3.7935 220.948 3.2048 220.948 2.54785C220.948 1.23709 222.023 0.286167 223.314 0.286133H239.664ZM9.22363 24.4658C9.46954 24.4841 9.71519 24.4981 9.95996 24.5068L10.7002 24.5195C10.2128 24.5195 9.71864 24.5025 9.22363 24.4658ZM61.5996 24.4648C61.8091 24.4822 62.0207 24.4969 62.2344 24.5059C62.0207 24.4969 61.8091 24.4822 61.5996 24.4648ZM144.271 24.4648C144.48 24.4822 144.692 24.4969 144.905 24.5059C144.692 24.4969 144.48 24.4822 144.271 24.4648ZM11.9512 24.4688C11.5401 24.5023 11.1244 24.5184 10.707 24.5186C11.1244 24.5184 11.5401 24.5023 11.9512 24.4688ZM172.95 24.4658C173.159 24.4831 173.371 24.4969 173.584 24.5059C173.371 24.4969 173.159 24.4831 172.95 24.4658ZM63.9004 24.4854C64.0149 24.4782 64.1289 24.4725 64.2422 24.4629C64.1289 24.4725 64.0149 24.4782 63.9004 24.4854ZM146.571 24.4854C146.686 24.4782 146.8 24.4725 146.913 24.4629C146.8 24.4725 146.686 24.4782 146.571 24.4854ZM175.249 24.4854C175.364 24.4782 175.478 24.4725 175.591 24.4629C175.478 24.4725 175.364 24.4782 175.249 24.4854ZM64.376 24.4492C64.5427 24.4336 64.7082 24.4175 64.8721 24.3965C64.7082 24.4175 64.5427 24.4336 64.376 24.4492ZM147.047 24.4492C147.214 24.4336 147.379 24.4175 147.543 24.3965C147.379 24.4175 147.214 24.4336 147.047 24.4492ZM175.729 24.4492C175.895 24.4335 176.06 24.4165 176.224 24.3955C176.06 24.4165 175.895 24.4335 175.729 24.4492ZM12.2021 24.4443C12.2612 24.4385 12.3201 24.4333 12.3789 24.4268C12.3201 24.4333 12.2612 24.4385 12.2021 24.4443ZM143.636 24.3994C143.744 24.4131 143.854 24.4223 143.964 24.4336C143.854 24.4223 143.744 24.4131 143.636 24.3994ZM60.9648 24.3994C61.0735 24.4131 61.1831 24.4223 61.293 24.4336C61.1831 24.4223 61.0735 24.4131 60.9648 24.3994ZM172.316 24.3994C172.416 24.4119 172.516 24.4211 172.617 24.4316C172.516 24.4211 172.416 24.4119 172.316 24.3994ZM8.11133 24.3477C8.29676 24.3735 8.48276 24.3954 8.66895 24.415C8.48277 24.3954 8.29675 24.3735 8.11133 24.3477ZM12.6514 24.3936C12.6924 24.3881 12.7335 24.3827 12.7744 24.377C12.7335 24.3827 12.6924 24.3881 12.6514 24.3936ZM60.3252 24.3037C60.455 24.3259 60.586 24.3445 60.7178 24.3633C60.586 24.3445 60.455 24.3259 60.3252 24.3037ZM142.996 24.3037C143.126 24.3259 143.257 24.3445 143.389 24.3633C143.257 24.3445 143.126 24.3259 142.996 24.3037ZM176.446 24.3633C176.582 24.3437 176.716 24.324 176.85 24.3008C176.716 24.324 176.582 24.3437 176.446 24.3633ZM171.679 24.3047C171.8 24.3255 171.923 24.3425 172.047 24.3604C171.923 24.3425 171.8 24.3255 171.679 24.3047ZM147.789 24.3594C147.916 24.3408 148.043 24.3235 148.168 24.3018C148.043 24.3235 147.916 24.3408 147.789 24.3594ZM65.1309 24.3574C65.252 24.3396 65.3727 24.3234 65.4922 24.3027C65.3727 24.3234 65.252 24.3396 65.1309 24.3574ZM13.0146 24.3398C13.0773 24.3298 13.1399 24.3205 13.2021 24.3096C13.1399 24.3205 13.0773 24.3298 13.0146 24.3398ZM7.77051 24.2959C7.86119 24.3106 7.95197 24.3248 8.04297 24.3379C7.95197 24.3248 7.86119 24.3106 7.77051 24.2959ZM7.40137 24.2324C7.48774 24.2486 7.57437 24.2637 7.66113 24.2783C7.57437 24.2637 7.48774 24.2486 7.40137 24.2324ZM13.3857 24.2744C13.4573 24.2608 13.5286 24.2473 13.5996 24.2324C13.5286 24.2473 13.4573 24.2608 13.3857 24.2744ZM59.7305 24.1885C59.8567 24.2158 59.9841 24.2397 60.1123 24.2637C59.9841 24.2397 59.8567 24.2158 59.7305 24.1885ZM142.401 24.1885C142.528 24.2157 142.655 24.2397 142.783 24.2637C142.655 24.2397 142.528 24.2158 142.401 24.1885ZM171.084 24.1895C171.204 24.2153 171.325 24.2379 171.446 24.2607C171.325 24.2379 171.204 24.2153 171.084 24.1895ZM177.057 24.2607C177.194 24.2347 177.331 24.2086 177.466 24.1787C177.331 24.2086 177.194 24.2347 177.057 24.2607ZM148.408 24.2559C148.536 24.2314 148.663 24.2065 148.788 24.1787C148.663 24.2065 148.536 24.2314 148.408 24.2559ZM65.752 24.252C65.8728 24.2286 65.9932 24.206 66.1123 24.1797C65.9932 24.206 65.8728 24.2286 65.752 24.252ZM113.939 24.1934C113.796 24.2187 113.645 24.2324 113.49 24.2324L113.491 24.2334C113.646 24.2334 113.796 24.2187 113.939 24.1934ZM127.25 24.1562C127.41 24.1896 127.573 24.2139 127.738 24.2256L127.989 24.2334C127.739 24.2334 127.491 24.2064 127.25 24.1562ZM214.564 24.2227C214.491 24.2295 214.417 24.2324 214.341 24.2324L214.342 24.2334C214.418 24.2334 214.492 24.2295 214.565 24.2227C214.639 24.2158 214.711 24.2057 214.781 24.1924C214.71 24.2058 214.638 24.2158 214.564 24.2227ZM113.026 24.1924C113.099 24.2054 113.174 24.2169 113.251 24.2236L113.48 24.2324C113.322 24.2319 113.171 24.2181 113.026 24.1924ZM193.142 24.1455C193.272 24.1829 193.409 24.2104 193.551 24.2236L193.765 24.2324C193.545 24.2315 193.337 24.2013 193.142 24.1455ZM213.701 24.1455C213.834 24.1835 213.973 24.2103 214.117 24.2236L214.331 24.2324C214.11 24.2316 213.899 24.2019 213.701 24.1455ZM239.686 24.2314C239.743 24.2309 239.8 24.2288 239.855 24.2236C239.8 24.2288 239.743 24.2309 239.686 24.2314ZM97.3945 24.2314C97.4572 24.2309 97.5194 24.2288 97.5811 24.2236C97.5194 24.2288 97.4572 24.2309 97.3945 24.2314ZM128.245 24.2217C128.263 24.2202 128.282 24.2196 128.3 24.2178C128.282 24.2196 128.263 24.2202 128.245 24.2217ZM204.298 24.2158C204.337 24.2115 204.376 24.2083 204.414 24.2021C204.376 24.2082 204.337 24.2115 204.298 24.2158ZM97.6631 24.2139C97.7076 24.2087 97.752 24.2038 97.7959 24.1963C97.752 24.2038 97.7076 24.2087 97.6631 24.2139ZM26.625 24.2119C26.6724 24.2063 26.7194 24.2015 26.7656 24.1934C26.7194 24.2015 26.6724 24.2063 26.625 24.2119ZM7.03711 24.1592C7.1205 24.177 7.20423 24.1936 7.28809 24.21C7.20424 24.1936 7.1205 24.177 7.03711 24.1592ZM239.97 24.208C239.992 24.2046 240.014 24.2023 240.036 24.1982C240.014 24.2023 239.992 24.2046 239.97 24.208ZM128.38 24.207C128.406 24.2036 128.433 24.2005 128.459 24.1963C128.433 24.2005 128.406 24.2036 128.38 24.207ZM13.8037 24.1875C13.8691 24.1726 13.9342 24.1575 13.999 24.1416C13.9342 24.1575 13.8691 24.1726 13.8037 24.1875ZM128.516 24.1855C128.549 24.1794 128.582 24.1735 128.615 24.166C128.582 24.1735 128.549 24.1794 128.516 24.1855ZM204.513 24.1826C204.545 24.1763 204.577 24.1706 204.608 24.1631C204.577 24.1706 204.545 24.1763 204.513 24.1826ZM97.875 24.1797C97.9147 24.1716 97.9541 24.1633 97.9932 24.1533C97.9541 24.1633 97.9147 24.1716 97.875 24.1797ZM26.8477 24.1758C26.8902 24.1667 26.9323 24.1577 26.9736 24.1465C26.9323 24.1577 26.8902 24.1667 26.8477 24.1758ZM114.024 24.1758C114.067 24.1668 114.108 24.1576 114.149 24.1465C114.108 24.1576 114.067 24.1668 114.024 24.1758ZM25.6885 24.1484C25.7229 24.1579 25.7578 24.1659 25.793 24.1738C25.7578 24.1659 25.7229 24.158 25.6885 24.1484ZM240.145 24.1738C240.169 24.1677 240.194 24.1623 240.218 24.1553C240.194 24.1623 240.169 24.1677 240.145 24.1738ZM127.013 24.0986C127.083 24.118 127.153 24.1351 127.225 24.1504C127.153 24.1351 127.083 24.118 127.013 24.0986ZM128.686 24.1475C128.71 24.1412 128.734 24.135 128.758 24.1279C128.734 24.135 128.71 24.1412 128.686 24.1475ZM6.70508 24.084C6.78194 24.1025 6.85919 24.1196 6.93652 24.1367C6.85919 24.1196 6.78194 24.1025 6.70508 24.084ZM112.625 24.083C112.675 24.1017 112.725 24.1185 112.777 24.1338C112.725 24.1185 112.675 24.1016 112.625 24.083ZM192.949 24.0801C193 24.0999 193.051 24.1177 193.104 24.1338C193.051 24.1177 193 24.0999 192.949 24.0801ZM177.66 24.1318C177.792 24.1005 177.924 24.0692 178.054 24.0342C177.924 24.0692 177.792 24.1005 177.66 24.1318ZM204.722 24.1318C204.743 24.1257 204.765 24.12 204.786 24.1133C204.765 24.1199 204.743 24.1257 204.722 24.1318ZM59.1543 24.0508C59.2595 24.0784 59.366 24.1027 59.4727 24.1279C59.366 24.1027 59.2595 24.0784 59.1543 24.0508ZM98.0811 24.1279C98.1207 24.1163 98.1604 24.1053 98.1992 24.0918C98.1604 24.1054 98.1207 24.1163 98.0811 24.1279ZM141.825 24.0508C141.93 24.0784 142.037 24.1027 142.144 24.1279C142.037 24.1027 141.93 24.0784 141.825 24.0508ZM149.011 24.126C149.131 24.0971 149.251 24.0681 149.37 24.0361C149.251 24.0681 149.131 24.0971 149.011 24.126ZM170.505 24.0508C170.605 24.0771 170.707 24.1008 170.809 24.125C170.707 24.1008 170.605 24.0771 170.505 24.0508ZM66.3477 24.124C66.4657 24.0957 66.5831 24.0674 66.6992 24.0361C66.5831 24.0674 66.4657 24.0957 66.3477 24.124ZM213.506 24.0791C213.545 24.0946 213.586 24.1078 213.627 24.1211C213.586 24.1078 213.545 24.0946 213.506 24.0791ZM240.321 24.1201C240.343 24.1125 240.364 24.106 240.385 24.0977C240.364 24.106 240.343 24.1125 240.321 24.1201ZM114.238 24.1182C114.274 24.1068 114.31 24.096 114.345 24.083C114.31 24.096 114.274 24.1068 114.238 24.1182ZM27.0664 24.1182C27.103 24.1066 27.1393 24.0953 27.1748 24.082C27.1393 24.0953 27.103 24.1066 27.0664 24.1182ZM25.502 24.0869C25.5255 24.0958 25.5492 24.1042 25.5732 24.1123C25.5492 24.1042 25.5255 24.0958 25.502 24.0869ZM128.827 24.1064C128.855 24.0972 128.882 24.0875 128.909 24.0771C128.882 24.0875 128.855 24.0972 128.827 24.1064ZM14.1445 24.1035C14.2352 24.08 14.3256 24.0569 14.415 24.0312C14.3256 24.0569 14.2352 24.08 14.1445 24.1035ZM126.781 24.0273C126.848 24.0502 126.915 24.0706 126.982 24.0898C126.915 24.0706 126.848 24.0502 126.781 24.0273ZM215.269 24.0381C215.228 24.0563 215.187 24.0741 215.145 24.0898C215.187 24.0741 215.228 24.0563 215.269 24.0381ZM192.777 24.0029C192.821 24.0249 192.865 24.0455 192.911 24.0645C192.866 24.0455 192.821 24.0249 192.777 24.0029ZM98.2725 24.0635C98.3102 24.049 98.3479 24.0348 98.3848 24.0186C98.3479 24.0348 98.3102 24.049 98.2725 24.0635ZM204.933 24.0625C204.944 24.0583 204.956 24.0552 204.967 24.0508C204.956 24.0552 204.944 24.0583 204.933 24.0625ZM112.427 23.9971C112.473 24.02 112.52 24.0408 112.568 24.0605C112.52 24.0408 112.473 24.02 112.427 23.9971ZM128.961 24.0557C128.993 24.0422 129.025 24.0289 129.057 24.0137C129.025 24.0289 128.993 24.0422 128.961 24.0557ZM213.324 23.998C213.363 24.0178 213.404 24.0353 213.444 24.0527C213.404 24.0353 213.363 24.0178 213.324 23.998ZM240.487 24.0508C240.506 24.0417 240.526 24.0341 240.545 24.0244C240.526 24.0341 240.506 24.0417 240.487 24.0508ZM6.33594 23.9893C6.40961 24.0093 6.48342 24.0291 6.55762 24.0479C6.48342 24.0291 6.40961 24.0093 6.33594 23.9893ZM27.2676 24.0439C27.2982 24.0309 27.3287 24.0182 27.3584 24.0039C27.3287 24.0183 27.2982 24.0309 27.2676 24.0439ZM25.3135 24.0049C25.34 24.0179 25.3664 24.031 25.3936 24.043C25.3664 24.031 25.34 24.0179 25.3135 24.0049ZM114.444 24.043C114.475 24.0298 114.505 24.0164 114.535 24.002C114.505 24.0164 114.475 24.0298 114.444 24.043ZM126.568 23.9463C126.625 23.9696 126.683 23.991 126.741 24.0117C126.683 23.991 126.625 23.9696 126.568 23.9463ZM14.5137 24.002C14.6028 23.9754 14.6915 23.9486 14.7793 23.9199C14.6915 23.9486 14.6028 23.9754 14.5137 24.002ZM205.094 23.9971C205.115 23.9875 205.136 23.9769 205.157 23.9668C205.136 23.9769 205.115 23.9875 205.094 23.9971ZM129.103 23.9902C129.126 23.9779 129.148 23.9645 129.171 23.9512C129.148 23.9645 129.126 23.9779 129.103 23.9902ZM98.4648 23.9814C98.5035 23.9628 98.5415 23.9433 98.5791 23.9229C98.5415 23.9433 98.5035 23.9628 98.4648 23.9814ZM112.255 23.9004C112.298 23.9277 112.343 23.9534 112.389 23.9775C112.343 23.9534 112.298 23.9276 112.255 23.9004ZM192.586 23.8945C192.631 23.9241 192.678 23.9516 192.727 23.9775C192.678 23.9516 192.631 23.924 192.586 23.8945ZM58.5693 23.8818C58.6689 23.913 58.7691 23.9428 58.8701 23.9717C58.7691 23.9428 58.6689 23.913 58.5693 23.8818ZM141.24 23.8818C141.34 23.913 141.44 23.9428 141.541 23.9717C141.44 23.9428 141.34 23.913 141.24 23.8818ZM169.918 23.8818C170.018 23.913 170.118 23.9428 170.219 23.9717C170.118 23.9428 170.018 23.913 169.918 23.8818ZM240.638 23.9717C240.656 23.9609 240.674 23.9508 240.691 23.9395C240.674 23.9508 240.656 23.9609 240.638 23.9717ZM25.1328 23.9053C25.162 23.9234 25.1914 23.9413 25.2217 23.958C25.1914 23.9413 25.1621 23.9234 25.1328 23.9053ZM178.32 23.958C178.421 23.9287 178.52 23.8997 178.619 23.8682C178.52 23.8997 178.421 23.9287 178.32 23.958ZM213.15 23.8984C213.183 23.9192 213.217 23.939 213.251 23.958C213.217 23.939 213.183 23.9192 213.15 23.8984ZM5.97266 23.8848C6.05492 23.9099 6.13769 23.9336 6.2207 23.957C6.13769 23.9336 6.05491 23.9099 5.97266 23.8848ZM149.656 23.9541C149.752 23.9261 149.846 23.8982 149.94 23.8682C149.846 23.8982 149.752 23.9261 149.656 23.9541ZM27.4561 23.9521C27.4851 23.9362 27.514 23.9205 27.542 23.9033C27.514 23.9205 27.4851 23.9362 27.4561 23.9521ZM66.9951 23.9512C67.0871 23.9241 67.1788 23.8972 67.2695 23.8682C67.1788 23.8972 67.0871 23.9241 66.9951 23.9512ZM114.633 23.9512C114.66 23.9363 114.687 23.9213 114.713 23.9053C114.687 23.9213 114.66 23.9363 114.633 23.9512ZM215.636 23.8271C215.589 23.8606 215.542 23.8922 215.492 23.9219C215.542 23.8922 215.589 23.8606 215.636 23.8271ZM95.8633 23.7793C95.9409 23.8295 96.0202 23.8775 96.1025 23.9199C96.0202 23.8775 95.9409 23.8295 95.8633 23.7793ZM126.336 23.8428C126.387 23.8677 126.44 23.8913 126.492 23.9141C126.44 23.8913 126.387 23.8677 126.336 23.8428ZM129.236 23.9092C129.257 23.8956 129.276 23.8817 129.296 23.8672C129.276 23.8817 129.257 23.8956 129.236 23.9092ZM205.279 23.9053C205.298 23.8954 205.316 23.8853 205.334 23.875C205.316 23.8853 205.298 23.8954 205.279 23.9053ZM98.6445 23.8857C98.6771 23.8667 98.7095 23.8476 98.7412 23.8271C98.7095 23.8476 98.6771 23.8667 98.6445 23.8857ZM192.427 23.7803C192.471 23.8159 192.518 23.8491 192.565 23.8809C192.518 23.8491 192.471 23.8158 192.427 23.7803ZM112.081 23.7773C112.124 23.8116 112.169 23.8443 112.215 23.875C112.169 23.8443 112.124 23.8116 112.081 23.7773ZM240.783 23.874C240.798 23.8633 240.812 23.8529 240.826 23.8418C240.812 23.8529 240.798 23.8633 240.783 23.874ZM212.992 23.7881C213.026 23.8143 213.061 23.8391 213.097 23.8633C213.061 23.8392 213.026 23.8143 212.992 23.7881ZM14.9482 23.8623C15.0173 23.8384 15.0861 23.8144 15.1543 23.7891C15.0861 23.8144 15.0173 23.8384 14.9482 23.8623ZM24.9805 23.8018C25.0064 23.8212 25.0327 23.8401 25.0596 23.8584C25.0327 23.8401 25.0064 23.8212 24.9805 23.8018ZM5.62109 23.7715C5.70623 23.8005 5.79185 23.8284 5.87793 23.8555C5.79185 23.8284 5.70623 23.8004 5.62109 23.7715ZM27.6221 23.8516C27.6517 23.8315 27.6806 23.8106 27.709 23.7891C27.6806 23.8106 27.6517 23.8314 27.6221 23.8516ZM114.796 23.8516C114.828 23.8298 114.859 23.8067 114.89 23.7832C114.859 23.8067 114.828 23.8298 114.796 23.8516ZM129.345 23.8291C129.368 23.8098 129.39 23.7894 129.412 23.7686C129.39 23.7894 129.368 23.8098 129.345 23.8291ZM205.433 23.8164C205.46 23.7996 205.486 23.7824 205.513 23.7646C205.486 23.7824 205.46 23.7996 205.433 23.8164ZM126.132 23.7363C126.177 23.7615 126.223 23.7861 126.27 23.8096C126.223 23.7861 126.177 23.7615 126.132 23.7363ZM88.1104 21.7217C88.0146 22.1347 87.8555 22.5479 87.6641 22.8975C87.4965 23.2312 87.2794 23.5033 87.0215 23.7119C87.1075 23.6424 87.189 23.5659 87.2656 23.4824C87.304 23.4406 87.3411 23.3969 87.377 23.3516C87.4843 23.2161 87.5804 23.0651 87.6641 22.8984C87.712 22.811 87.7583 22.7195 87.8018 22.625C87.8886 22.4361 87.9654 22.2351 88.0283 22.0303C88.0597 21.9281 88.0874 21.8248 88.1113 21.7217C88.1433 21.6183 88.1728 21.5145 88.2012 21.4111L88.1104 21.7217ZM58.0166 23.6953C58.1154 23.7313 58.2151 23.7651 58.3154 23.7988C58.2151 23.7652 58.1154 23.7312 58.0166 23.6953ZM140.688 23.6953C140.786 23.7312 140.886 23.7652 140.986 23.7988C140.886 23.7652 140.786 23.7312 140.688 23.6953ZM169.365 23.6953C169.464 23.7312 169.564 23.7652 169.664 23.7988C169.564 23.7652 169.464 23.7312 169.365 23.6953ZM178.882 23.7793C178.988 23.7429 179.093 23.706 179.197 23.667C179.093 23.706 178.988 23.7429 178.882 23.7793ZM67.5566 23.7715C67.6526 23.7383 67.7483 23.7053 67.8428 23.6699C67.7483 23.7053 67.6526 23.7383 67.5566 23.7715ZM150.228 23.7715C150.324 23.7383 150.419 23.7053 150.514 23.6699C150.419 23.7053 150.324 23.7383 150.228 23.7715ZM240.917 23.7646C240.933 23.7502 240.949 23.7357 240.964 23.7207C240.949 23.7357 240.933 23.7502 240.917 23.7646ZM98.835 23.7627C98.8601 23.7449 98.8847 23.7267 98.9092 23.708C98.8847 23.7267 98.8601 23.7449 98.835 23.7627ZM192.302 23.6699C192.335 23.7016 192.369 23.7334 192.404 23.7627C192.369 23.7334 192.335 23.7016 192.302 23.6699ZM111.78 23.4795C111.863 23.5821 111.956 23.6751 112.058 23.7588C111.956 23.6752 111.863 23.5821 111.78 23.4795ZM5.34082 23.6709C5.40159 23.6934 5.46213 23.7168 5.52344 23.7383C5.46213 23.7168 5.40159 23.6934 5.34082 23.6709ZM15.292 23.7363C15.3689 23.7064 15.4449 23.6753 15.5205 23.6436C15.4449 23.6753 15.3689 23.7064 15.292 23.7363ZM114.949 23.7363C114.981 23.7101 115.011 23.6824 115.041 23.6543C115.011 23.6824 114.981 23.7101 114.949 23.7363ZM27.7803 23.7314C27.8112 23.7057 27.8418 23.6799 27.8711 23.6523C27.8419 23.6799 27.8112 23.7057 27.7803 23.7314ZM129.451 23.7314C129.475 23.7063 129.498 23.6797 129.52 23.6523C129.498 23.6797 129.475 23.7063 129.451 23.7314ZM212.852 23.6689C212.875 23.6903 212.898 23.7111 212.922 23.7314C212.898 23.7112 212.875 23.6903 212.852 23.6689ZM205.589 23.7119C205.62 23.6898 205.65 23.6669 205.68 23.6436C205.65 23.6669 205.62 23.6898 205.589 23.7119ZM125.905 23.6025C125.958 23.6363 126.012 23.6688 126.066 23.7002C126.012 23.6688 125.958 23.6363 125.905 23.6025ZM241.03 23.6523C241.047 23.634 241.063 23.6148 241.079 23.5957C241.063 23.6148 241.047 23.634 241.03 23.6523ZM98.9863 23.6475C99.0143 23.6244 99.0414 23.6004 99.0684 23.5762C99.0414 23.6004 99.0143 23.6244 98.9863 23.6475ZM129.547 23.6182C129.568 23.5901 129.586 23.5606 129.604 23.5303C129.586 23.5606 129.568 23.5901 129.547 23.6182ZM3.91016 23.0098C4.31514 23.2413 4.74172 23.4406 5.18359 23.6123C4.74173 23.4406 4.31513 23.2413 3.91016 23.0098ZM27.917 23.6064C27.9492 23.5741 27.9808 23.5414 28.0107 23.5068C27.9808 23.5414 27.9492 23.5741 27.917 23.6064ZM57.4512 23.4727C57.5533 23.5156 57.6559 23.5582 57.7598 23.5986C57.6558 23.5582 57.5533 23.5156 57.4512 23.4727ZM115.1 23.5986C115.127 23.5705 115.154 23.5415 115.18 23.5117C115.154 23.5415 115.127 23.5705 115.1 23.5986ZM140.122 23.4727C140.224 23.5156 140.327 23.5582 140.431 23.5986C140.327 23.5582 140.224 23.5156 140.122 23.4727ZM168.809 23.4775C168.906 23.5186 169.005 23.558 169.104 23.5967C169.005 23.558 168.906 23.5186 168.809 23.4775ZM212.706 23.5186C212.729 23.5446 212.752 23.5699 212.776 23.5947C212.752 23.5699 212.729 23.5446 212.706 23.5186ZM205.749 23.5879C205.768 23.5721 205.786 23.5553 205.805 23.5391C205.786 23.5553 205.768 23.5721 205.749 23.5879ZM15.6533 23.5859C15.7209 23.5563 15.7881 23.5263 15.8545 23.4951C15.7881 23.5263 15.7209 23.5563 15.6533 23.5859ZM125.701 23.4639C125.759 23.5051 125.817 23.5455 125.876 23.584C125.817 23.5455 125.759 23.5051 125.701 23.4639ZM179.43 23.5762C179.528 23.537 179.626 23.4975 179.723 23.4561C179.626 23.4975 179.528 23.537 179.43 23.5762ZM192.132 23.4893C192.157 23.5195 192.184 23.5475 192.21 23.5762C192.184 23.5475 192.157 23.5194 192.132 23.4893ZM68.0996 23.5693C68.1914 23.5326 68.2827 23.4957 68.373 23.457C68.2827 23.4957 68.1914 23.5326 68.0996 23.5693ZM150.771 23.5693C150.862 23.5326 150.954 23.4957 151.044 23.457C150.954 23.4957 150.862 23.5326 150.771 23.5693ZM41.4268 23.3428C41.4814 23.4216 41.5415 23.4957 41.6064 23.5654C41.5415 23.4957 41.4814 23.4216 41.4268 23.3428ZM241.142 23.5186C241.153 23.5035 241.164 23.4881 241.175 23.4727C241.164 23.4881 241.153 23.5034 241.142 23.5186ZM99.1377 23.5117C99.1662 23.4842 99.1944 23.4565 99.2217 23.4277C99.1944 23.4565 99.1662 23.4842 99.1377 23.5117ZM129.626 23.4951C129.645 23.4601 129.663 23.4237 129.679 23.3857C129.663 23.4237 129.645 23.4601 129.626 23.4951ZM192.021 23.3389C192.053 23.3868 192.087 23.4328 192.123 23.4775C192.087 23.4329 192.053 23.3868 192.021 23.3389ZM212.588 23.3701C212.609 23.3998 212.631 23.4286 212.654 23.457C212.631 23.4286 212.609 23.3998 212.588 23.3701ZM115.232 23.4492C115.256 23.4193 115.279 23.3888 115.302 23.3574C115.279 23.3888 115.256 23.4193 115.232 23.4492ZM28.0615 23.4463C28.0832 23.4192 28.1028 23.3906 28.123 23.3623C28.1028 23.3906 28.0832 23.4192 28.0615 23.4463ZM205.907 23.4463C205.92 23.4341 205.932 23.4216 205.944 23.4092C205.932 23.4216 205.92 23.4341 205.907 23.4463ZM125.528 23.333C125.574 23.3696 125.621 23.4057 125.668 23.4404C125.621 23.4057 125.574 23.3696 125.528 23.333ZM16.0312 23.4092C16.0877 23.3811 16.1437 23.3525 16.1992 23.3232C16.1437 23.3525 16.0877 23.3811 16.0312 23.4092ZM56.9326 23.2402C57.035 23.2891 57.1378 23.3376 57.2422 23.3838C57.1378 23.3376 57.035 23.2891 56.9326 23.2402ZM139.604 23.2402C139.706 23.2891 139.809 23.3376 139.913 23.3838C139.809 23.3376 139.706 23.2891 139.604 23.2402ZM168.285 23.2432C168.382 23.2894 168.48 23.334 168.579 23.3779C168.48 23.334 168.382 23.2895 168.285 23.2432ZM99.2803 23.3633C99.3057 23.3346 99.3303 23.3052 99.3545 23.2754C99.3303 23.3052 99.3057 23.3346 99.2803 23.3633ZM129.736 23.2129C129.749 23.1605 129.761 23.106 129.768 23.0488L129.778 22.8652C129.778 22.7698 129.768 22.6784 129.75 22.5898V22.5908C129.767 22.6793 129.777 22.7708 129.777 22.8662C129.777 22.9918 129.763 23.1071 129.736 23.2129ZM180.021 23.3223C180.096 23.2876 180.171 23.2528 180.245 23.2168C180.171 23.2528 180.096 23.2876 180.021 23.3223ZM68.6777 23.3203C68.7511 23.2864 68.8241 23.2521 68.8965 23.2168C68.8241 23.2521 68.7511 23.2864 68.6777 23.3203ZM151.349 23.3203C151.422 23.2864 151.495 23.2521 151.567 23.2168C151.495 23.2521 151.422 23.2864 151.349 23.3203ZM221.104 21.2686C221.023 21.5771 220.982 21.904 220.982 22.2617C220.982 22.6524 221.072 23.0106 221.235 23.3125C221.072 23.0107 220.983 22.6523 220.983 22.2617C220.983 21.9038 221.024 21.5772 221.104 21.2686ZM212.482 23.2051C212.5 23.2358 212.518 23.2663 212.537 23.2959C212.518 23.2663 212.5 23.2358 212.482 23.2051ZM111.571 23.1592C111.594 23.2034 111.619 23.2462 111.646 23.2881C111.619 23.2462 111.594 23.2034 111.571 23.1592ZM125.335 23.1699C125.38 23.2101 125.425 23.2497 125.472 23.2881C125.425 23.2497 125.38 23.2101 125.335 23.1699ZM191.925 23.1797C191.945 23.2166 191.966 23.2527 191.988 23.2881C191.966 23.2527 191.945 23.2166 191.925 23.1797ZM28.1768 23.2852C28.1982 23.252 28.2187 23.2182 28.2383 23.1836C28.2187 23.2182 28.1982 23.252 28.1768 23.2852ZM115.351 23.2852C115.371 23.2542 115.39 23.2226 115.408 23.1904C115.39 23.2227 115.371 23.2542 115.351 23.2852ZM16.3438 23.2451C16.4134 23.2066 16.4828 23.1683 16.5508 23.1279C16.4828 23.1683 16.4134 23.2066 16.3438 23.2451ZM241.319 23.2275C241.33 23.2066 241.339 23.1854 241.349 23.1641C241.339 23.1854 241.33 23.2066 241.319 23.2275ZM24.4189 23.1572C24.432 23.1808 24.4461 23.2036 24.46 23.2266C24.4461 23.2036 24.432 23.1808 24.4189 23.1572ZM99.4111 23.2031C99.4414 23.1629 99.471 23.1221 99.499 23.0801C99.471 23.1221 99.4414 23.1629 99.4111 23.2031ZM56.4297 22.9854C56.5195 23.0337 56.6097 23.0818 56.7012 23.1279C56.6097 23.0818 56.5195 23.0337 56.4297 22.9854ZM125.146 22.9912C125.193 23.0377 125.24 23.0834 125.288 23.1279C125.24 23.0834 125.193 23.0377 125.146 22.9912ZM139.092 22.9805C139.185 23.0304 139.278 23.0802 139.372 23.1279C139.278 23.0802 139.185 23.0305 139.092 22.9805ZM167.778 22.9854C167.868 23.0337 167.958 23.0818 168.05 23.1279C167.958 23.0818 167.868 23.0337 167.778 22.9854ZM212.396 23.0391C212.41 23.0683 212.423 23.0976 212.438 23.126C212.423 23.0976 212.41 23.0683 212.396 23.0391ZM28.2783 23.1123C28.301 23.0682 28.3211 23.0227 28.3408 22.9766C28.3211 23.0227 28.301 23.0682 28.2783 23.1123ZM191.843 23.0098C191.857 23.0433 191.873 23.076 191.889 23.1084C191.873 23.076 191.857 23.0433 191.843 23.0098ZM115.455 23.1055C115.472 23.0717 115.487 23.0369 115.503 23.002C115.487 23.0369 115.472 23.0717 115.455 23.1055ZM111.481 22.9619C111.501 23.0106 111.521 23.0581 111.544 23.1045C111.521 23.0581 111.501 23.0106 111.481 22.9619ZM69.1562 23.085C69.2467 23.038 69.337 22.9914 69.4258 22.9424C69.337 22.9914 69.2467 23.038 69.1562 23.085ZM151.827 23.085C151.918 23.038 152.008 22.9914 152.097 22.9424C152.008 22.9914 151.918 23.038 151.827 23.085ZM180.516 23.0801C180.604 23.0342 180.692 22.9883 180.778 22.9404C180.692 22.9883 180.604 23.0342 180.516 23.0801ZM24.335 22.9873C24.3468 23.0141 24.3593 23.0403 24.3721 23.0664C24.3592 23.0403 24.3468 23.0141 24.335 22.9873ZM241.39 23.0664C241.397 23.0476 241.402 23.0279 241.408 23.0088C241.402 23.0279 241.397 23.0476 241.39 23.0664ZM16.6699 23.0547C16.7471 23.0069 16.8235 22.9585 16.8984 22.9082C16.8235 22.9585 16.7471 23.0069 16.6699 23.0547ZM99.5254 23.0391C99.5585 22.9874 99.5906 22.935 99.6201 22.8809C99.5906 22.935 99.5585 22.9874 99.5254 23.0391ZM122.976 19.4961C123.478 20.3305 123.907 21.2139 124.435 22.0605C124.51 22.1815 124.587 22.3017 124.667 22.4209C124.803 22.615 124.957 22.7991 125.125 22.9707C124.957 22.7993 124.804 22.6149 124.668 22.4209C124.029 21.467 123.55 20.4491 122.976 19.4951V19.4961ZM3.60645 22.8271C3.68129 22.8742 3.75754 22.9191 3.83398 22.9639C3.75754 22.9191 3.68129 22.8742 3.60645 22.8271ZM191.771 22.8154C191.785 22.8577 191.799 22.8995 191.814 22.9404C191.799 22.8995 191.785 22.8577 191.771 22.8154ZM28.3604 22.9326C28.3792 22.8853 28.3945 22.8364 28.4102 22.7871C28.3945 22.8364 28.3792 22.8853 28.3604 22.9326ZM212.309 22.8154C212.321 22.855 212.335 22.8943 212.35 22.9326C212.335 22.8943 212.321 22.855 212.309 22.8154ZM115.536 22.9258C115.55 22.8897 115.563 22.8527 115.575 22.8154C115.563 22.8527 115.55 22.8897 115.536 22.9258ZM111.416 22.7715C111.431 22.8238 111.449 22.8747 111.468 22.9248C111.449 22.8747 111.431 22.8238 111.416 22.7715ZM241.444 22.8994C241.454 22.8651 241.461 22.8301 241.469 22.7949C241.461 22.8301 241.454 22.8651 241.444 22.8994ZM24.2617 22.7949C24.2712 22.8235 24.2805 22.8519 24.291 22.8799C24.2805 22.8519 24.2712 22.8235 24.2617 22.7949ZM138.539 22.6631C138.651 22.732 138.765 22.7999 138.88 22.8652C138.765 22.7999 138.651 22.732 138.539 22.6631ZM99.6289 22.8643C99.6598 22.8066 99.6891 22.7478 99.7158 22.6875C99.6891 22.7478 99.6598 22.8066 99.6289 22.8643ZM55.9336 22.7021C56.0234 22.7564 56.1135 22.8104 56.2051 22.8623C56.1134 22.8104 56.0234 22.7564 55.9336 22.7021ZM16.9717 22.8584C17.0437 22.8088 17.1138 22.7571 17.1836 22.7051C17.1138 22.7571 17.0437 22.8088 16.9717 22.8584ZM167.271 22.6963C167.362 22.7512 167.453 22.8058 167.546 22.8584C167.453 22.8058 167.362 22.7512 167.271 22.6963ZM69.6465 22.8154C69.7401 22.7609 69.8332 22.7063 69.9248 22.6494C69.8332 22.7063 69.7401 22.7609 69.6465 22.8154ZM152.317 22.8154C152.411 22.7609 152.504 22.7063 152.596 22.6494C152.504 22.7063 152.411 22.7609 152.317 22.8154ZM180.996 22.8154C181.09 22.7606 181.183 22.7047 181.275 22.6475C181.183 22.7047 181.09 22.7606 180.996 22.8154ZM3.30176 22.625C3.38234 22.6809 3.46418 22.7351 3.54688 22.7881C3.46418 22.7351 3.38234 22.6809 3.30176 22.625ZM212.26 22.6396C212.269 22.6815 212.279 22.723 212.291 22.7637C212.279 22.723 212.269 22.6815 212.26 22.6396ZM191.712 22.5908C191.683 22.4451 191.667 22.2927 191.667 22.1348L191.677 22.3564C191.684 22.4362 191.697 22.5145 191.712 22.5908ZM28.4297 22.7314C28.4466 22.6729 28.4604 22.6129 28.4727 22.5518C28.4604 22.6129 28.4466 22.6729 28.4297 22.7314ZM111.366 22.5654C111.377 22.6199 111.389 22.6732 111.403 22.7256C111.389 22.6732 111.377 22.6198 111.366 22.5654ZM24.2139 22.6309C24.2183 22.6489 24.2227 22.6668 24.2275 22.6846C24.2227 22.6668 24.2183 22.6489 24.2139 22.6309ZM99.8623 22.2617C99.827 22.4025 99.7811 22.5387 99.7246 22.6689C99.7524 22.6049 99.778 22.5394 99.8008 22.4727L99.8633 22.2617L103.683 6.50098L99.8623 22.2617ZM17.2881 22.627C17.342 22.5852 17.3948 22.5423 17.4473 22.499C17.3948 22.5423 17.342 22.5852 17.2881 22.627ZM138.091 22.373C138.196 22.4448 138.303 22.5155 138.411 22.584C138.303 22.5155 138.196 22.4448 138.091 22.373ZM166.772 22.376C166.872 22.4439 166.973 22.5113 167.075 22.5762C166.973 22.5113 166.872 22.4439 166.772 22.376ZM3.0498 22.4424C3.1067 22.4854 3.16458 22.527 3.22266 22.5684C3.16458 22.527 3.1067 22.4854 3.0498 22.4424ZM55.4854 22.416C55.5602 22.4662 55.6347 22.5169 55.7109 22.5654C55.6347 22.5169 55.5602 22.4662 55.4854 22.416ZM212.21 22.3438C212.216 22.4145 212.227 22.4837 212.24 22.5518C212.215 22.4179 212.201 22.2786 212.201 22.1348L212.21 22.3438ZM206.549 22.4844V22.4854L212.201 7.34961V7.34863L206.549 22.4844ZM28.5205 22.0713C28.5205 22.2281 28.5066 22.3792 28.4795 22.5234C28.4929 22.4523 28.5029 22.379 28.5098 22.3047L28.5205 22.0723V22.0713ZM70.127 22.5205C70.2207 22.4594 70.3137 22.3976 70.4053 22.334C70.3137 22.3976 70.2207 22.4594 70.127 22.5205ZM152.804 22.5166C152.895 22.4567 152.987 22.3963 153.076 22.334C152.987 22.3963 152.895 22.4567 152.804 22.5166ZM181.481 22.5166C181.573 22.4567 181.664 22.3963 181.754 22.334C181.664 22.3963 181.573 22.4567 181.481 22.5166ZM111.319 22.0723L111.328 22.3047C111.334 22.3764 111.345 22.4469 111.356 22.5156C111.332 22.3737 111.319 22.2253 111.319 22.0713V22.0723ZM17.5918 22.376C17.6444 22.3299 17.6961 22.283 17.7471 22.2354C17.6961 22.283 17.6444 22.3299 17.5918 22.376ZM2.75684 22.209C2.81382 22.2567 2.87134 22.3037 2.92969 22.3496C2.87134 22.3037 2.81382 22.2567 2.75684 22.209ZM137.614 22.0303C137.719 22.1102 137.825 22.1892 137.934 22.2656C137.825 22.1892 137.719 22.1102 137.614 22.0303ZM166.335 22.0625C166.426 22.131 166.517 22.1997 166.61 22.2656C166.517 22.1997 166.426 22.131 166.335 22.0625ZM241.514 22.2617C241.512 22.2306 241.512 22.1996 241.509 22.1689C241.512 22.1996 241.512 22.2306 241.514 22.2617ZM55.0166 22.084C55.094 22.1419 55.1709 22.2008 55.25 22.2568C55.1709 22.2008 55.094 22.1419 55.0166 22.084ZM70.5977 22.1953C70.6822 22.1338 70.7661 22.0716 70.8486 22.0078C70.7661 22.0716 70.6822 22.1338 70.5977 22.1953ZM153.269 22.1953C153.358 22.1305 153.446 22.0654 153.533 21.998C153.446 22.0654 153.358 22.1305 153.269 22.1953ZM181.946 22.1953C182.031 22.1336 182.115 22.0718 182.198 22.0078C182.115 22.0717 182.031 22.1336 181.946 22.1953ZM17.8418 22.1445C17.901 22.0868 17.9588 22.0278 18.0156 21.9678C17.9588 22.0278 17.901 22.0868 17.8418 22.1445ZM2.49414 21.9785C2.55471 22.0344 2.61638 22.0889 2.67871 22.1426C2.61639 22.0889 2.55471 22.0344 2.49414 21.9785ZM129.458 21.8486C129.498 21.9281 129.538 22.0075 129.575 22.0879L129.458 21.8477C129.382 21.7008 129.304 21.5554 129.224 21.4111L129.458 21.8486ZM241.493 22.0508C241.49 22.0266 241.487 22.0024 241.482 21.9785C241.487 22.0024 241.49 22.0266 241.493 22.0508ZM137.116 21.6289C137.236 21.7315 137.357 21.8321 137.481 21.9297C137.357 21.8321 137.236 21.7315 137.116 21.6289ZM54.5576 21.7217C54.6394 21.79 54.7208 21.8588 54.8047 21.9248C54.7208 21.8588 54.6394 21.7899 54.5576 21.7217ZM165.794 21.6289C165.911 21.7296 166.03 21.8289 166.152 21.9248C166.03 21.8289 165.911 21.7296 165.794 21.6289ZM241.467 21.9082C241.459 21.8723 241.45 21.8368 241.44 21.8018C241.45 21.8368 241.459 21.8723 241.467 21.9082ZM2.22656 21.7178C2.2884 21.7812 2.35109 21.8435 2.41504 21.9043C2.35109 21.8435 2.2884 21.7812 2.22656 21.7178ZM18.0957 21.8828C18.1492 21.8242 18.2008 21.7639 18.252 21.7031C18.2008 21.7639 18.1492 21.8242 18.0957 21.8828ZM71.042 21.8545C71.1206 21.7909 71.1987 21.7268 71.2754 21.6611C71.1987 21.7268 71.1206 21.7909 71.042 21.8545ZM153.713 21.8545C153.793 21.7895 153.873 21.7243 153.951 21.6572C153.873 21.7243 153.793 21.7895 153.713 21.8545ZM182.405 21.8418C182.473 21.7869 182.54 21.7322 182.606 21.6758C182.54 21.7322 182.473 21.7869 182.405 21.8418ZM241.422 21.7432C241.412 21.7116 241.402 21.6801 241.391 21.6494C241.402 21.6801 241.412 21.7116 241.422 21.7432ZM2.00488 21.4795C2.06086 21.5425 2.11783 21.6043 2.17578 21.665C2.11783 21.6044 2.06086 21.5425 2.00488 21.4795ZM91.4629 9.44922L94.5996 21.6074L91.4639 9.44727L91.4629 9.44922ZM18.3477 21.5869C18.395 21.5277 18.4411 21.4675 18.4863 21.4062C18.4411 21.4675 18.395 21.5277 18.3477 21.5869ZM165.324 21.2051C165.457 21.3331 165.594 21.4568 165.733 21.5781C165.594 21.4568 165.457 21.3331 165.324 21.2051ZM54.125 21.3408C54.2085 21.4184 54.2919 21.4962 54.3779 21.5713C54.2919 21.4962 54.2085 21.4184 54.125 21.3408ZM241.349 21.5498C241.339 21.5291 241.33 21.5085 241.32 21.4883C241.33 21.5085 241.339 21.5291 241.349 21.5498ZM201.123 21.4033H201.124H201.123ZM71.4785 21.4824C71.5534 21.415 71.6273 21.3468 71.7002 21.2773C71.6273 21.3468 71.5534 21.415 71.4785 21.4824ZM154.153 21.4795C154.227 21.4131 154.299 21.3457 154.371 21.2773C154.299 21.3457 154.227 21.4131 154.153 21.4795ZM182.855 21.457C182.914 21.4042 182.97 21.3499 183.027 21.2959C182.97 21.3499 182.914 21.4042 182.855 21.457ZM241.277 21.4062C241.263 21.3795 241.247 21.353 241.231 21.3271C241.247 21.353 241.263 21.3795 241.277 21.4062ZM1.77441 21.2041C1.82091 21.2623 1.86695 21.3206 1.91504 21.377C1.86695 21.3206 1.82091 21.2623 1.77441 21.2041ZM18.5615 21.3037C18.6082 21.2375 18.6531 21.17 18.6973 21.1016C18.6531 21.17 18.6082 21.2375 18.5615 21.3037ZM241.187 21.2588C241.17 21.2353 241.154 21.2121 241.137 21.1895C241.154 21.2121 241.17 21.2353 241.187 21.2588ZM241.086 21.126C241.066 21.1017 241.045 21.0779 241.023 21.0547C241.045 21.0779 241.066 21.1016 241.086 21.126ZM1.55078 20.9092C1.59723 20.9743 1.64406 21.0386 1.69238 21.1016C1.64406 21.0386 1.59723 20.9743 1.55078 20.9092ZM71.8809 21.1016C71.9548 21.0277 72.0269 20.952 72.0986 20.876C72.0269 20.952 71.9548 21.0277 71.8809 21.1016ZM154.552 21.1016C154.63 21.0236 154.707 20.9446 154.782 20.8643C154.707 20.9446 154.63 21.0236 154.552 21.1016ZM183.234 21.0957C183.299 21.0305 183.363 20.9643 183.427 20.8975C183.363 20.9643 183.299 21.0306 183.234 21.0957ZM240.97 20.999C240.95 20.9793 240.929 20.9602 240.908 20.9414C240.929 20.9602 240.95 20.9793 240.97 20.999ZM18.7803 20.9697C18.8124 20.9169 18.8424 20.8627 18.873 20.8086C18.8424 20.8627 18.8124 20.9169 18.7803 20.9697ZM240.831 20.876C240.817 20.8648 240.802 20.8545 240.788 20.8438C240.802 20.8545 240.817 20.8648 240.831 20.876ZM136.211 20.7568C136.247 20.7959 136.284 20.8345 136.32 20.873C136.284 20.8345 136.247 20.7959 136.211 20.7568ZM164.931 20.8037C164.947 20.821 164.963 20.8382 164.979 20.8555C164.963 20.8382 164.947 20.821 164.931 20.8037ZM1.33496 20.5889C1.37991 20.66 1.4256 20.7301 1.47266 20.7988C1.4256 20.7301 1.37991 20.66 1.33496 20.5889ZM240.698 20.7793C240.678 20.7661 240.657 20.7536 240.637 20.7412C240.657 20.7536 240.678 20.7661 240.698 20.7793ZM145.585 4.61816C141.187 4.61827 138.338 8.31101 138.338 12.5C138.338 14.7119 139.006 16.6583 140.228 18.0449C141.443 19.4238 143.238 20.2861 145.585 20.2861C147.912 20.2861 149.683 19.4108 150.88 18.0244C152.084 16.6294 152.736 14.6816 152.736 12.5C152.736 8.30375 149.945 4.61816 145.585 4.61816ZM174.263 4.61816C169.865 4.61833 167.017 8.31104 167.017 12.5C167.017 14.7118 167.683 16.6583 168.904 18.0449C170.119 19.4238 171.916 20.2861 174.263 20.2861C176.589 20.286 178.361 19.4107 179.558 18.0244C180.761 16.6294 181.412 14.6815 181.412 12.5C181.412 8.30388 178.622 4.61839 174.263 4.61816ZM72.2578 20.7051C72.3276 20.6279 72.3963 20.5499 72.4639 20.4707C72.3963 20.5499 72.3276 20.6279 72.2578 20.7051ZM154.929 20.7051C155.002 20.6235 155.075 20.5409 155.146 20.457C155.075 20.5409 155.002 20.6235 154.929 20.7051ZM240.548 20.6914C240.524 20.6788 240.499 20.6678 240.474 20.6562C240.499 20.6678 240.524 20.6788 240.548 20.6914ZM183.625 20.6846C183.686 20.6171 183.745 20.5485 183.804 20.4795C183.745 20.5485 183.686 20.6171 183.625 20.6846ZM18.9629 20.6465C18.9994 20.5769 19.0343 20.5062 19.0684 20.4346C19.0343 20.5062 18.9994 20.5769 18.9629 20.6465ZM240.396 20.6211C240.369 20.6103 240.342 20.6014 240.314 20.5918C240.342 20.6014 240.369 20.6103 240.396 20.6211ZM240.219 20.5586C240.208 20.5554 240.197 20.5538 240.186 20.5508C240.197 20.5538 240.208 20.5554 240.219 20.5586ZM128.164 19.6797C128.352 19.9716 128.538 20.2627 128.72 20.5566L128.456 20.1348C128.36 19.9827 128.262 19.8315 128.164 19.6797ZM239.864 20.4912H239.865H239.864ZM1.16406 20.3018C1.20305 20.3705 1.24136 20.4391 1.28223 20.5059C1.24137 20.4391 1.20305 20.3705 1.16406 20.3018ZM135.886 20.3887C135.912 20.4198 135.938 20.4506 135.965 20.4814C135.938 20.4506 135.912 20.4198 135.886 20.3887ZM164.563 20.3887C164.59 20.4198 164.616 20.4506 164.643 20.4814C164.616 20.4506 164.59 20.4198 164.563 20.3887ZM53.2305 20.4072C53.2427 20.4217 53.2553 20.4358 53.2676 20.4502C53.2553 20.4358 53.2427 20.4217 53.2305 20.4072ZM19.1318 20.3018C19.1643 20.2289 19.1928 20.154 19.2227 20.0791C19.1928 20.154 19.1643 20.2289 19.1318 20.3018ZM62.9141 4.61816C58.5162 4.61828 55.669 8.31102 55.6689 12.5C55.6689 14.712 56.3349 16.6583 57.5566 18.0449C58.7717 19.4238 60.5674 20.2861 62.9141 20.2861C65.2408 20.2861 67.0124 19.4108 68.209 18.0244C69.4129 16.6294 70.0654 14.6816 70.0654 12.5C70.0654 8.30376 67.2739 4.61818 62.9141 4.61816ZM155.308 20.2637C155.372 20.1848 155.433 20.1042 155.495 20.0234C155.433 20.1042 155.372 20.1848 155.308 20.2637ZM183.984 20.2637C184.048 20.1848 184.11 20.1042 184.172 20.0234C184.11 20.1042 184.048 20.1848 183.984 20.2637ZM72.6436 20.2549C72.704 20.1801 72.7628 20.1039 72.8213 20.0273C72.7628 20.1039 72.704 20.1801 72.6436 20.2549ZM0.945312 19.8877C0.992895 19.9862 1.04161 20.0831 1.09277 20.1777C1.04161 20.0831 0.992893 19.9862 0.945312 19.8877ZM135.56 19.9814C135.579 20.0067 135.599 20.0315 135.618 20.0566C135.599 20.0315 135.579 20.0067 135.56 19.9814ZM164.241 19.9863C164.251 19.9987 164.26 20.0111 164.27 20.0234C164.26 20.0111 164.251 19.9987 164.241 19.9863ZM19.2783 19.9404C19.3192 19.8303 19.3573 19.7181 19.3926 19.6035C19.3573 19.7181 19.3191 19.8303 19.2783 19.9404ZM0.708008 19.3184C0.726312 19.3778 0.746337 19.4371 0.768555 19.4961C0.816243 19.6115 0.866628 19.7244 0.918945 19.835L0.929688 19.8564C0.873592 19.7389 0.820372 19.6182 0.769531 19.4951C0.74737 19.4363 0.726353 19.3776 0.708008 19.3184ZM72.9668 19.833C73.0327 19.7427 73.0969 19.6511 73.1602 19.5586C73.0969 19.6511 73.0327 19.7427 72.9668 19.833ZM155.638 19.833C155.705 19.7408 155.77 19.6473 155.835 19.5527C155.77 19.6473 155.705 19.7408 155.638 19.833ZM184.317 19.8291C184.377 19.7467 184.436 19.6634 184.494 19.5791C184.436 19.6634 184.377 19.7467 184.317 19.8291ZM135.231 19.5254C135.255 19.56 135.279 19.5946 135.303 19.6289C135.279 19.5946 135.255 19.56 135.231 19.5254ZM163.915 19.5342C163.933 19.5599 163.95 19.5858 163.968 19.6113C163.95 19.5858 163.933 19.5599 163.915 19.5342ZM52.5811 19.5557C52.5916 19.5711 52.6026 19.5862 52.6133 19.6016C52.6026 19.5862 52.5916 19.5711 52.5811 19.5557ZM19.4043 19.5664C19.4398 19.4487 19.4715 19.3285 19.501 19.2061C19.4715 19.3285 19.4398 19.4487 19.4043 19.5664ZM73.2842 19.374C73.3467 19.2783 73.4071 19.181 73.4668 19.083C73.4071 19.181 73.3467 19.2783 73.2842 19.374ZM155.955 19.374C156.022 19.2716 156.087 19.1675 156.15 19.0625C156.087 19.1675 156.022 19.2716 155.955 19.374ZM184.646 19.3525C184.699 19.2718 184.749 19.1897 184.8 19.1074C184.749 19.1897 184.699 19.2718 184.646 19.3525ZM0.662109 19.1436C0.67169 19.1856 0.68248 19.2272 0.694336 19.2686C0.682411 19.2272 0.671758 19.1856 0.662109 19.1436ZM134.925 19.0508C134.952 19.0946 134.979 19.1382 135.006 19.1816C134.979 19.1382 134.952 19.0946 134.925 19.0508ZM19.5107 19.168C19.5385 19.0497 19.563 18.9293 19.585 18.8066C19.563 18.9293 19.5385 19.0498 19.5107 19.168ZM52.2734 19.0811C52.2913 19.1101 52.3091 19.1391 52.3271 19.168C52.3091 19.1391 52.2913 19.1101 52.2734 19.0811ZM163.604 19.0518C163.627 19.0906 163.651 19.1295 163.675 19.168C163.651 19.1295 163.627 19.0906 163.604 19.0518ZM0.711914 18.0664C0.64659 18.2678 0.608398 18.4805 0.608398 18.7012L0.621094 18.9102C0.627807 18.971 0.637554 19.031 0.649414 19.0898C0.624068 18.965 0.609375 18.836 0.609375 18.7002C0.60942 18.4798 0.646722 18.2676 0.711914 18.0664ZM73.584 18.8887C73.6384 18.7951 73.6903 18.7 73.7422 18.6045C73.6903 18.7 73.6384 18.7951 73.584 18.8887ZM156.255 18.8887C156.309 18.7951 156.361 18.7 156.413 18.6045C156.361 18.7 156.309 18.7951 156.255 18.8887ZM89.3242 17.2695V17.2705C89.6755 15.9828 90.0267 14.6788 90.3818 13.3711V13.3701C90.0266 14.6778 89.6755 15.9817 89.3242 17.2695ZM184.947 18.8623C184.99 18.7876 185.032 18.7117 185.073 18.6357C185.032 18.7117 184.99 18.7876 184.947 18.8623ZM19.5938 18.7559C19.6076 18.6752 19.6176 18.5933 19.6289 18.5107C19.6176 18.5933 19.6076 18.6752 19.5938 18.7559ZM57.4473 18.6357C57.4779 18.667 57.5108 18.6959 57.542 18.7266C57.505 18.6903 57.4668 18.6553 57.4307 18.6182L57.4473 18.6357ZM134.655 18.582C134.674 18.6173 134.693 18.6525 134.713 18.6875C134.693 18.6525 134.674 18.6173 134.655 18.582ZM163.35 18.6133C163.361 18.6346 163.372 18.6565 163.384 18.6777C163.372 18.6565 163.361 18.6346 163.35 18.6133ZM125.146 14.7256C125.881 15.9656 126.615 17.2062 127.382 18.4463V18.4453C127.19 18.1354 127.001 17.8256 126.812 17.5156C126.248 16.5857 125.698 15.6554 125.147 14.7256C125.244 14.6963 125.339 14.6649 125.433 14.6328C125.339 14.6649 125.244 14.6962 125.146 14.7256ZM73.8555 18.3936C73.9095 18.2887 73.9607 18.1822 74.0117 18.0752C73.9607 18.1822 73.9095 18.2887 73.8555 18.3936ZM156.526 18.3936C156.584 18.281 156.64 18.1669 156.694 18.0518C156.64 18.1669 156.584 18.281 156.526 18.3936ZM185.217 18.3682C185.256 18.2915 185.293 18.2136 185.331 18.1357C185.293 18.2136 185.256 18.2915 185.217 18.3682ZM134.401 18.0869C134.431 18.1479 134.461 18.2083 134.491 18.2686C134.461 18.2083 134.431 18.1479 134.401 18.0869ZM19.7061 17.3965C19.7061 17.6797 19.691 17.9536 19.665 18.2178C19.6762 18.104 19.6879 17.9884 19.6943 17.8711L19.7061 17.3975V17.3965ZM205.809 13.1201C205.2 14.7608 204.593 16.3988 203.994 18.0322C203.728 17.2672 203.456 16.5024 203.183 15.7373C203.456 16.5025 203.728 17.268 203.994 18.0332C205.192 14.7661 206.425 11.4809 207.627 8.19141L205.809 13.1201ZM156.77 17.8926C156.826 17.7689 156.878 17.6431 156.931 17.5166C156.878 17.6431 156.826 17.7689 156.77 17.8926ZM74.1084 17.8701C74.159 17.7582 74.2066 17.6445 74.2539 17.5303C74.2066 17.6445 74.159 17.7582 74.1084 17.8701ZM185.464 17.8525C185.498 17.7777 185.529 17.7019 185.562 17.626C185.529 17.7019 185.498 17.7777 185.464 17.8525ZM0.920898 17.6064H0.921875H0.920898ZM134.171 17.5742C134.193 17.6269 134.215 17.6793 134.238 17.7314C134.215 17.6793 134.193 17.6268 134.171 17.5742ZM56.4033 17.2705C56.4527 17.3535 56.5024 17.4359 56.5547 17.5166C56.5024 17.4359 56.4527 17.3535 56.4033 17.2705ZM4.60156 17.2236C4.65875 17.2918 4.7131 17.3636 4.7666 17.4385C4.71309 17.3636 4.65873 17.2918 4.60156 17.2236ZM74.332 17.3408C74.3721 17.239 74.4089 17.1357 74.4463 17.0322C74.4089 17.1357 74.3721 17.239 74.332 17.3408ZM157.003 17.3408C157.043 17.239 157.08 17.1357 157.117 17.0322C157.08 17.1357 157.043 17.239 157.003 17.3408ZM185.689 17.3184C185.723 17.2317 185.754 17.1436 185.786 17.0557C185.754 17.1436 185.723 17.2317 185.689 17.3184ZM162.676 17.1426C162.684 17.1645 162.693 17.1862 162.701 17.208C162.693 17.1862 162.684 17.1645 162.676 17.1426ZM74.5352 16.7871C74.5782 16.6593 74.6172 16.5297 74.6562 16.3994C74.6172 16.5297 74.5782 16.6593 74.5352 16.7871ZM157.209 16.7783C157.251 16.6534 157.289 16.5267 157.327 16.3994C157.289 16.5267 157.251 16.6534 157.209 16.7783ZM185.888 16.7705C185.914 16.693 185.937 16.6146 185.962 16.5361C185.937 16.6146 185.914 16.693 185.888 16.7705ZM133.808 16.5928C133.818 16.6238 133.828 16.6547 133.838 16.6855C133.828 16.6547 133.818 16.6238 133.808 16.5928ZM162.485 16.5928C162.495 16.6238 162.505 16.6547 162.516 16.6855C162.505 16.6547 162.495 16.6238 162.485 16.5928ZM228.418 12.4619C227.624 13.3557 226.828 14.2484 226.029 15.1387C225.858 15.3332 225.683 15.5267 225.508 15.7188L225.507 15.7197C225.683 15.5273 225.858 15.3345 226.029 15.1396C227.626 13.359 229.214 11.5699 230.795 9.77734L228.418 12.4619ZM74.7051 16.2354C74.7461 16.0913 74.7842 15.9458 74.8203 15.7988C74.7842 15.9458 74.7461 16.0913 74.7051 16.2354ZM157.376 16.2354C157.417 16.0913 157.455 15.9458 157.491 15.7988C157.455 15.9458 157.417 16.0913 157.376 16.2354ZM186.061 16.2109C186.085 16.1228 186.108 16.0336 186.131 15.9443C186.108 16.0336 186.085 16.1228 186.061 16.2109ZM133.647 16.0508C133.657 16.0848 133.666 16.1185 133.676 16.1523C133.666 16.1185 133.657 16.0848 133.647 16.0508ZM162.325 16.0508C162.334 16.0848 162.344 16.1185 162.354 16.1523C162.344 16.1185 162.334 16.0848 162.325 16.0508ZM14.5498 15.9111C14.6019 15.9576 14.6517 16.0054 14.6992 16.0547C14.6517 16.0054 14.6019 15.9576 14.5498 15.9111ZM74.8584 15.6465C74.8891 15.5147 74.9147 15.3811 74.9414 15.2471C74.9147 15.3811 74.8891 15.5147 74.8584 15.6465ZM157.529 15.6465C157.56 15.5147 157.586 15.3811 157.612 15.2471C157.586 15.3811 157.56 15.5147 157.529 15.6465ZM186.213 15.6191C186.231 15.5419 186.245 15.4638 186.262 15.3857C186.245 15.4638 186.231 15.5419 186.213 15.6191ZM133.513 15.498C133.519 15.5261 133.525 15.5541 133.531 15.582C133.525 15.5541 133.519 15.5261 133.513 15.498ZM162.19 15.498C162.197 15.5261 162.203 15.5541 162.209 15.582C162.203 15.5541 162.197 15.5261 162.19 15.498ZM11.7148 14.6729C12.4958 14.8519 13.2877 15.1016 13.9277 15.4678C13.2877 15.1015 12.4958 14.8519 11.7148 14.6729ZM203.045 15.3555C202.843 14.7933 202.639 14.2311 202.434 13.6689C202.639 14.2311 202.843 14.7933 203.045 15.3555ZM97.2754 15.1689L97.2764 15.1709L97.2754 15.1689ZM85.6836 15.1387L88.9414 2.61133V2.61035L85.6836 15.1387ZM74.9824 15.0469C75.0148 14.87 75.0438 14.6913 75.0693 14.5107C75.0438 14.6913 75.0148 14.87 74.9824 15.0469ZM157.654 15.0459C157.687 14.8694 157.715 14.691 157.74 14.5107C157.715 14.691 157.687 14.8694 157.654 15.0459ZM186.337 15.0176C186.352 14.9335 186.363 14.8486 186.377 14.7637C186.363 14.8486 186.352 14.9335 186.337 15.0176ZM133.394 14.8906C133.4 14.9307 133.407 14.9708 133.414 15.0107C133.407 14.9708 133.4 14.9307 133.394 14.8906ZM162.071 14.8906C162.078 14.9307 162.085 14.9708 162.092 15.0107C162.085 14.9708 162.078 14.9307 162.071 14.8906ZM28.5205 14.79H41.0391V14.7891H28.5205V14.79ZM181.708 14.5078C181.69 14.6024 181.668 14.6958 181.647 14.7891C181.668 14.6958 181.69 14.6024 181.708 14.5078ZM181.863 13.3291C181.834 13.7167 181.785 14.0965 181.715 14.4668C181.809 13.9682 181.867 13.4525 181.887 12.9238L181.863 13.3291ZM75.0801 14.4385C75.1028 14.2711 75.1209 14.1021 75.1377 13.9316C75.1209 14.1021 75.1028 14.2711 75.0801 14.4385ZM125.939 14.4385C125.95 14.4341 125.96 14.4292 125.97 14.4248C125.96 14.4292 125.95 14.4341 125.939 14.4385ZM133.26 13.8779C133.278 14.0667 133.299 14.2536 133.324 14.4385C133.299 14.2536 133.278 14.0667 133.26 13.8779ZM157.751 14.4385C157.774 14.2708 157.792 14.1014 157.809 13.9307C157.792 14.1014 157.774 14.2708 157.751 14.4385ZM161.941 13.9131C161.958 14.0835 161.975 14.2526 161.998 14.4199C161.975 14.2526 161.958 14.0835 161.941 13.9131ZM8.60742 14.1709C8.86987 14.2108 9.13158 14.2479 9.3916 14.2812C9.62707 14.313 9.89626 14.3486 10.1865 14.3916C9.8961 14.3485 9.62718 14.3121 9.3916 14.2803C9.13163 14.2469 8.86982 14.2107 8.60742 14.1709ZM126.124 14.3555C126.163 14.3376 126.202 14.3211 126.24 14.3027C126.202 14.3211 126.163 14.3376 126.124 14.3555ZM126.369 14.2383C126.412 14.2163 126.455 14.1936 126.497 14.1709C126.455 14.1936 126.412 14.2163 126.369 14.2383ZM7.80273 14.0361C8.02415 14.0766 8.24619 14.1127 8.46777 14.1475C8.24619 14.1127 8.02415 14.0766 7.80273 14.0361ZM126.603 14.1123C126.648 14.0866 126.694 14.0617 126.739 14.0352C126.694 14.0617 126.648 14.0866 126.603 14.1123ZM7.01465 13.8779C7.25516 13.9311 7.49751 13.9784 7.74023 14.0234C7.49751 13.9784 7.25516 13.9311 7.01465 13.8779ZM55.2588 13.7695C55.2669 13.8386 55.2777 13.9071 55.2871 13.9756C55.2753 13.8898 55.2636 13.8036 55.2539 13.7168L55.2588 13.7695ZM126.837 13.9756C126.883 13.9468 126.929 13.9174 126.975 13.8877C126.929 13.9174 126.883 13.9468 126.837 13.9756ZM6.66211 13.7969C6.74324 13.8164 6.82469 13.835 6.90625 13.8535C6.82469 13.835 6.74324 13.8164 6.66211 13.7969ZM127.083 13.8145C127.118 13.7905 127.152 13.7657 127.186 13.7412C127.152 13.7657 127.118 13.7905 127.083 13.8145ZM75.1953 13.1641C75.1857 13.3802 75.1712 13.5941 75.1523 13.8057C75.1712 13.5941 75.1857 13.3802 75.1953 13.1641ZM157.866 13.1641C157.857 13.3802 157.842 13.5941 157.823 13.8057C157.842 13.5941 157.857 13.3802 157.866 13.1641ZM186.5 13.8057C186.511 13.679 186.517 13.5512 186.525 13.4229C186.517 13.5512 186.511 13.679 186.5 13.8057ZM133.208 13.167C133.217 13.3782 133.233 13.5872 133.251 13.7939C133.214 13.3719 133.194 12.9403 133.194 12.5L133.208 13.167ZM161.887 13.167C161.896 13.3782 161.91 13.5872 161.929 13.7939C161.91 13.5872 161.896 13.3782 161.887 13.167ZM6.24512 13.6904C6.32067 13.7106 6.3966 13.7298 6.47266 13.749C6.3966 13.7298 6.32067 13.7106 6.24512 13.6904ZM127.265 13.6836C127.313 13.6476 127.361 13.6114 127.407 13.5742C127.361 13.6114 127.313 13.6476 127.265 13.6836ZM5.86914 13.585C5.96786 13.614 6.06722 13.6417 6.16699 13.6689C6.06722 13.6417 5.96786 13.614 5.86914 13.585ZM5.51758 13.4766C5.59043 13.5 5.66375 13.5225 5.7373 13.5449C5.66375 13.5225 5.59043 13.5 5.51758 13.4766ZM127.478 13.5176C127.535 13.4707 127.591 13.4236 127.646 13.375C127.591 13.4236 127.535 13.4707 127.478 13.5176ZM5.15234 13.3525C5.21227 13.3738 5.27251 13.3946 5.33301 13.415C5.27251 13.3946 5.21227 13.3738 5.15234 13.3525ZM127.671 13.3525C127.712 13.3154 127.752 13.2773 127.792 13.2393C127.752 13.2773 127.712 13.3154 127.671 13.3525ZM4.78809 13.2168C4.85248 13.2421 4.91726 13.2668 4.98242 13.291C4.91725 13.2668 4.85248 13.2421 4.78809 13.2168ZM55.1943 12.9297C55.1979 13.0233 55.2041 13.1163 55.21 13.209C55.2041 13.1161 55.1989 13.0225 55.1953 12.9287L55.1855 12.5L55.1943 12.9297ZM127.87 13.1641C127.908 13.1268 127.944 13.0889 127.98 13.0508C127.944 13.0889 127.908 13.1268 127.87 13.1641ZM4.47168 13.0869C4.50741 13.1022 4.54309 13.1178 4.5791 13.1328C4.54309 13.1178 4.50742 13.1022 4.47168 13.0869ZM202.191 13.0068C201.948 12.3451 201.703 11.6832 201.456 11.0215C201.703 11.6832 201.948 12.3451 202.191 13.0068ZM4.1084 12.9229C4.15012 12.9428 4.19221 12.9621 4.23438 12.9814C4.19221 12.9621 4.15013 12.9428 4.1084 12.9229ZM128.046 12.9814C128.084 12.9401 128.121 12.8978 128.157 12.8555C128.121 12.8978 128.084 12.9401 128.046 12.9814ZM3.75586 12.7451C3.81126 12.7746 3.86752 12.8026 3.92383 12.8311C3.86752 12.8026 3.81126 12.7746 3.75586 12.7451ZM128.205 12.7998C128.245 12.7519 128.285 12.7034 128.323 12.6543C128.285 12.7034 128.245 12.7519 128.205 12.7998ZM3.43262 12.5635C3.49123 12.5981 3.55056 12.6317 3.61035 12.665C3.55055 12.6317 3.49124 12.5981 3.43262 12.5635ZM128.361 12.6064C128.412 12.5402 128.461 12.4727 128.509 12.4043C128.461 12.4727 128.412 12.5402 128.361 12.6064ZM3.13477 12.3789C3.18184 12.4097 3.22938 12.4399 3.27734 12.4697C3.22938 12.4399 3.18184 12.4097 3.13477 12.3789ZM2.83398 12.1709C2.8782 12.2032 2.92264 12.2353 2.96777 12.2666C2.92264 12.2353 2.8782 12.2032 2.83398 12.1709ZM128.899 11.7588C128.832 11.8892 128.758 12.0154 128.681 12.1396C128.758 12.0154 128.832 11.8891 128.899 11.7588ZM2.52637 11.9316C2.57879 11.9749 2.63159 12.0178 2.68555 12.0596C2.63158 12.0178 2.5788 11.9749 2.52637 11.9316ZM2.28223 11.7188C2.3238 11.7569 2.3655 11.795 2.4082 11.832C2.36549 11.795 2.32381 11.7569 2.28223 11.7188ZM128.974 11.6094C128.987 11.5818 129.001 11.5542 129.014 11.5264C129.001 11.5542 128.987 11.5818 128.974 11.6094ZM2.03613 11.4795C2.0688 11.5132 2.10127 11.5471 2.13477 11.5801C2.10126 11.5471 2.0688 11.5132 2.03613 11.4795ZM129.058 11.4287C129.078 11.3837 129.098 11.3386 129.117 11.293C129.098 11.3386 129.078 11.3837 129.058 11.4287ZM1.7832 11.2002C1.81645 11.2396 1.84948 11.279 1.88379 11.3174C1.84948 11.279 1.81646 11.2396 1.7832 11.2002ZM186.5 11.2793C186.499 11.2692 186.498 11.2591 186.497 11.249C186.498 11.2591 186.499 11.2692 186.5 11.2793ZM129.162 11.1826C129.179 11.1409 129.195 11.0989 129.211 11.0566C129.195 11.0989 129.179 11.1409 129.162 11.1826ZM116.176 11.1289H121.763C122.916 11.1288 123.651 10.8383 124.106 10.3604C124.566 9.8774 124.824 9.11442 124.824 7.98535C124.824 6.80519 124.525 6.03966 124.023 5.5625C123.518 5.08117 122.719 4.80958 121.538 4.80957H116.176V11.1289ZM1.56055 10.917C1.59495 10.9638 1.62826 11.0112 1.66406 11.0566C1.62825 11.0112 1.59495 10.9638 1.56055 10.917ZM129.247 10.957C129.264 10.9095 129.28 10.8616 129.296 10.8135C129.28 10.8616 129.264 10.9095 129.247 10.957ZM1.35059 10.6094C1.38362 10.6617 1.41649 10.7138 1.45117 10.7646C1.41649 10.7138 1.38363 10.6617 1.35059 10.6094ZM186.435 10.7266C186.431 10.6992 186.427 10.6718 186.423 10.6445C186.427 10.6718 186.431 10.6992 186.435 10.7266ZM129.328 10.7139C129.346 10.6566 129.364 10.5991 129.381 10.541C129.364 10.5991 129.346 10.6566 129.328 10.7139ZM124.63 10.4873C124.574 10.5608 124.513 10.6299 124.449 10.6963C124.513 10.6299 124.574 10.5608 124.63 10.4873ZM12.1953 10.2881C12.5639 10.3583 12.93 10.438 13.291 10.5283C12.93 10.4379 12.5639 10.3583 12.1953 10.2881ZM1.16602 10.2939C1.1979 10.3533 1.22981 10.4122 1.26367 10.4697C1.2298 10.4122 1.19791 10.3533 1.16602 10.2939ZM129.406 10.4492C129.418 10.4062 129.429 10.3628 129.44 10.3193C129.429 10.3628 129.418 10.4062 129.406 10.4492ZM129.469 10.2021C129.483 10.1425 129.498 10.0828 129.511 10.0225C129.498 10.0828 129.483 10.1425 129.469 10.2021ZM1.01074 9.97949C1.0343 10.0313 1.05705 10.0832 1.08203 10.1338C1.05704 10.0832 1.0343 10.0313 1.01074 9.97949ZM186.338 10.1338C186.331 10.0966 186.324 10.0595 186.316 10.0225C186.324 10.0595 186.331 10.0966 186.338 10.1338ZM8.91406 9.7959C9.48495 9.89866 10.0217 9.96585 10.4453 10.0195L9.70605 9.92188C9.45583 9.88656 9.1889 9.84538 8.91406 9.7959ZM129.527 9.94434C129.539 9.88514 129.551 9.82554 129.562 9.76562C129.551 9.82554 129.539 9.88514 129.527 9.94434ZM0.856445 9.60156C0.880467 9.66722 0.902549 9.73306 0.928711 9.79688C0.902542 9.73306 0.880473 9.66722 0.856445 9.60156ZM129.576 9.68262C129.586 9.62371 129.596 9.56445 129.604 9.50488C129.596 9.56445 129.586 9.62371 129.576 9.68262ZM125.122 9.47266C125.181 9.26588 125.226 9.04464 125.256 8.80859C125.226 9.04462 125.181 9.2659 125.122 9.47266ZM186.221 9.58887C186.209 9.54094 186.198 9.49298 186.187 9.44531C186.198 9.49298 186.209 9.54094 186.221 9.58887ZM5.58984 8.44531C6.01055 8.86289 6.61345 9.1613 7.27051 9.38477C6.6135 9.16134 6.01068 8.86272 5.58984 8.44531ZM129.654 9.12793C129.656 9.11104 129.657 9.09408 129.659 9.07715C129.657 9.09408 129.656 9.11104 129.654 9.12793ZM186.064 8.99316C186.054 8.95823 186.044 8.92345 186.033 8.88867C186.044 8.92345 186.054 8.95823 186.064 8.99316ZM185.962 8.66699C185.925 8.55238 185.888 8.43807 185.848 8.3252C185.888 8.43807 185.925 8.55238 185.962 8.66699ZM238.579 7.44434C238.228 7.84177 237.869 8.23161 237.51 8.62109C237.869 8.23181 238.229 7.84272 238.58 7.44531C238.747 7.2716 238.912 7.09505 239.075 6.91797C238.912 7.09496 238.746 7.27064 238.579 7.44434ZM125.246 7.10645C125.286 7.37819 125.306 7.67133 125.306 7.98535L125.307 7.98438C125.307 7.59188 125.275 7.23282 125.213 6.90625L125.246 7.10645ZM185.759 8.09082C185.72 7.98858 185.68 7.88685 185.639 7.78613C185.68 7.88685 185.72 7.98858 185.759 8.09082ZM167.935 7.5957C167.865 7.7039 167.798 7.81407 167.733 7.92578L167.936 7.5957C168.005 7.48747 168.077 7.38086 168.151 7.27637L167.935 7.5957ZM129.678 7.08594C129.698 7.33843 129.709 7.59914 129.712 7.86816C129.709 7.59913 129.698 7.33843 129.678 7.08594ZM185.539 7.55469C185.492 7.44788 185.445 7.34131 185.396 7.23633C185.445 7.34131 185.492 7.44788 185.539 7.55469ZM16.0654 7.50781C16.1318 7.50781 16.1985 7.50321 16.2646 7.49707C16.1985 7.50322 16.1318 7.50781 16.0654 7.50781ZM16.4082 7.47754C16.4254 7.47481 16.4428 7.47383 16.46 7.4707C16.4428 7.47383 16.4254 7.4748 16.4082 7.47754ZM16.5791 7.44434C16.6091 7.43718 16.6392 7.43022 16.6689 7.42188C16.6392 7.43022 16.6091 7.43718 16.5791 7.44434ZM14.3408 6.74512C14.5445 6.92404 14.7307 7.07624 14.9238 7.19629C14.7309 7.07616 14.5454 6.92395 14.3418 6.74512C14.1479 6.56278 13.9601 6.39123 13.7773 6.23047C13.9601 6.39123 14.147 6.56283 14.3408 6.74512ZM16.7627 7.39258C16.7951 7.38202 16.8274 7.3713 16.8594 7.35938C16.8274 7.37131 16.7951 7.38202 16.7627 7.39258ZM199.625 6.09766C199.773 6.50211 199.92 6.90777 200.068 7.31445C199.92 6.90783 199.773 6.50205 199.625 6.09766ZM16.9727 7.3125C16.9932 7.30364 17.0139 7.29555 17.0342 7.28613C17.0139 7.29555 16.9932 7.30364 16.9727 7.3125ZM17.1533 7.22656C17.177 7.21393 17.2004 7.2009 17.2236 7.1875C17.2004 7.2009 17.177 7.21393 17.1533 7.22656ZM17.3135 7.13281C17.3438 7.1135 17.3739 7.09386 17.4033 7.07324C17.3739 7.09385 17.3439 7.1135 17.3135 7.13281ZM17.4795 7.01758C17.5064 6.99707 17.5326 6.97571 17.5586 6.9541C17.5326 6.9757 17.5065 6.99707 17.4795 7.01758ZM185.287 7.01758C185.241 6.92555 185.195 6.83369 185.146 6.74316C185.195 6.8337 185.241 6.92555 185.287 7.01758ZM142.035 5.00098C141.235 5.42858 140.535 5.99877 139.948 6.67383C140.116 6.48107 140.293 6.29682 140.479 6.12207C140.757 5.85985 141.056 5.61914 141.374 5.40234C141.586 5.2577 141.806 5.12321 142.035 5.00098ZM170.712 5.00098C169.912 5.42851 169.213 5.99898 168.626 6.67383C168.794 6.48107 168.97 6.29682 169.156 6.12207C169.342 5.94726 169.537 5.78201 169.74 5.62695C170.045 5.39442 170.369 5.18417 170.712 5.00098ZM59.3643 5.00098C58.5643 5.42858 57.8643 5.99877 57.2773 6.67383C57.445 6.48108 57.6218 6.29681 57.8076 6.12207C58.0863 5.85985 58.3853 5.61914 58.7031 5.40234C58.9152 5.2577 59.1355 5.12321 59.3643 5.00098ZM17.6348 6.8877C17.663 6.8621 17.69 6.83549 17.7168 6.80859C17.69 6.83549 17.663 6.8621 17.6348 6.8877ZM129.648 6.80469C129.643 6.75722 129.639 6.70994 129.633 6.66309C129.639 6.70994 129.643 6.75722 129.648 6.80469ZM17.7734 6.75098C17.7995 6.72284 17.8251 6.69442 17.8496 6.66504C17.8251 6.69442 17.7995 6.72284 17.7734 6.75098ZM239.252 6.72363C239.364 6.6003 239.475 6.47647 239.585 6.35156C239.475 6.47641 239.364 6.60036 239.252 6.72363ZM124.678 5.58496C124.742 5.67493 124.801 5.7701 124.855 5.87012C124.91 5.96992 124.959 6.07465 125.004 6.18457C125.049 6.29478 125.089 6.40979 125.124 6.53027C125.02 6.16916 124.871 5.8547 124.678 5.58496ZM17.9082 6.59082C17.9269 6.56626 17.9444 6.54094 17.9619 6.51562C17.9444 6.54094 17.9269 6.56626 17.9082 6.59082ZM185.012 6.50098C184.962 6.41317 184.912 6.32556 184.86 6.23926C184.912 6.32556 184.962 6.41316 185.012 6.50098ZM129.549 6.13574C129.529 6.032 129.509 5.9296 129.486 5.8291C129.509 5.9296 129.529 6.032 129.549 6.13574ZM18.0244 6.42188C18.0386 6.39886 18.0513 6.37512 18.0645 6.35156C18.0513 6.37512 18.0386 6.39885 18.0244 6.42188ZM18.1162 6.25488C18.136 6.21423 18.1541 6.17287 18.1709 6.13086C18.1541 6.17288 18.136 6.21422 18.1162 6.25488ZM240.165 5.67285C240.012 5.85794 239.856 6.04088 239.698 6.22266C239.856 6.04092 240.013 5.85782 240.165 5.67285ZM18.1934 6.07324C18.2074 6.03444 18.2191 5.9949 18.2305 5.95508C18.2191 5.99491 18.2074 6.03443 18.1934 6.07324ZM184.721 6.01562C184.665 5.92801 184.609 5.84083 184.552 5.75488C184.609 5.84083 184.665 5.92801 184.721 6.01562ZM129.464 5.73926C129.44 5.64274 129.416 5.5476 129.39 5.4541C129.416 5.5476 129.44 5.64274 129.464 5.73926ZM199.465 5.66504C199.34 5.32821 199.215 4.99226 199.086 4.6582C199.215 4.9923 199.34 5.32817 199.465 5.66504ZM184.414 5.55566C184.351 5.46626 184.288 5.37752 184.223 5.29004C184.288 5.37752 184.351 5.46626 184.414 5.55566ZM18.2236 4.95215C18.2741 5.10335 18.3018 5.27009 18.3018 5.47266L18.293 5.28125C18.2812 5.16059 18.2573 5.05303 18.2236 4.95215ZM129.337 5.28125C129.319 5.22348 129.301 5.16596 129.282 5.10938C129.301 5.16596 129.319 5.22348 129.337 5.28125ZM54.0957 3.90234C53.8176 4.17027 53.5535 4.452 53.3037 4.74609C53.5535 4.452 53.8176 4.17028 54.0957 3.90234ZM184.06 5.07715C183.999 4.99994 183.938 4.92326 183.876 4.84766C183.938 4.92326 183.999 4.99993 184.06 5.07715ZM124.044 4.96191C124.096 4.99787 124.146 5.03511 124.194 5.07422C124.146 5.03513 124.096 4.99785 124.044 4.96191ZM129.214 4.9209C129.194 4.86799 129.174 4.8155 129.153 4.76367C129.174 4.8155 129.194 4.86799 129.214 4.9209ZM240.766 4.90137C240.791 4.86443 240.817 4.82818 240.842 4.79102C240.817 4.82818 240.791 4.86443 240.766 4.90137ZM240.896 4.7041C240.931 4.64718 240.967 4.59079 241 4.5332C240.967 4.59079 240.931 4.64718 240.896 4.7041ZM174.263 4.1377C173.229 4.1377 172.277 4.32776 171.422 4.6709L171.795 4.5332C172.551 4.27735 173.377 4.13773 174.263 4.1377ZM62.9141 4.1377C61.8801 4.13771 60.9288 4.32772 60.0732 4.6709L60.4453 4.53418C61.202 4.27809 62.0277 4.13772 62.9141 4.1377ZM183.7 4.63965C183.636 4.5653 183.571 4.49162 183.505 4.41895C183.571 4.49162 183.636 4.5653 183.7 4.63965ZM129.086 4.60449C129.061 4.54697 129.036 4.48974 129.01 4.43359C129.036 4.48974 129.061 4.54697 129.086 4.60449ZM17.79 4.23242C17.8698 4.33567 17.9421 4.43109 18.0049 4.52441L17.79 4.23145C17.7284 4.15524 17.6654 4.08055 17.6016 4.00684L17.79 4.23242ZM8.94434 4.35938C8.62095 4.35938 8.27969 4.38285 7.93848 4.43262C8.16613 4.39943 8.39382 4.37847 8.61621 4.36816C8.72714 4.36302 8.83672 4.36035 8.94434 4.36035V4.35938ZM241.059 4.42578C241.087 4.37308 241.114 4.32 241.14 4.2666C241.114 4.32 241.087 4.37308 241.059 4.42578ZM145.585 4.1377C144.994 4.13771 144.431 4.20017 143.896 4.31738C144.431 4.20021 144.994 4.13771 145.585 4.1377ZM223.122 4.38379L223.314 4.3916C223.247 4.3916 223.181 4.38826 223.116 4.38281C223.118 4.38298 223.12 4.38363 223.122 4.38379ZM222.928 4.3584C222.959 4.36382 222.991 4.36702 223.023 4.37109C222.991 4.36702 222.959 4.36382 222.928 4.3584ZM222.746 4.31836C222.774 4.32581 222.802 4.33156 222.831 4.33789C222.802 4.33156 222.774 4.32581 222.746 4.31836ZM222.574 4.26367C222.599 4.27291 222.625 4.28079 222.65 4.28906C222.625 4.28079 222.599 4.27291 222.574 4.26367ZM128.93 4.27246C128.904 4.22094 128.878 4.16945 128.851 4.11914C128.878 4.16945 128.904 4.22094 128.93 4.27246ZM183.328 4.22949C183.25 4.14695 183.17 4.06557 183.089 3.98535C183.17 4.06558 183.25 4.14694 183.328 4.22949ZM222.409 4.19336C222.435 4.20577 222.461 4.21721 222.487 4.22852C222.461 4.21721 222.435 4.20577 222.409 4.19336ZM63.3486 4.14941C63.5908 4.16234 63.8276 4.18772 64.0596 4.22168C63.8279 4.18776 63.5914 4.16137 63.3496 4.14844L63.3486 4.14941ZM146.02 4.14941C146.262 4.16234 146.499 4.18773 146.73 4.22168C146.499 4.18776 146.262 4.16137 146.021 4.14844L146.02 4.14941ZM174.697 4.14941C174.925 4.16157 175.148 4.18508 175.366 4.21582C175.148 4.18505 174.925 4.16059 174.697 4.14844V4.14941ZM222.257 4.11035C222.279 4.12403 222.302 4.13666 222.325 4.14941C222.302 4.13666 222.279 4.12403 222.257 4.11035ZM241.194 4.14844C241.216 4.09916 241.238 4.04998 241.258 4C241.238 4.04998 241.216 4.09916 241.194 4.14844ZM222.107 4.00684C222.133 4.02642 222.159 4.04526 222.186 4.06348C222.159 4.04525 222.133 4.02642 222.107 4.00684ZM128.768 3.97461C128.735 3.91833 128.702 3.86232 128.668 3.80762C128.702 3.86232 128.735 3.91833 128.768 3.97461ZM221.98 3.89844C222.006 3.92262 222.032 3.94616 222.06 3.96875C222.032 3.94616 222.006 3.92262 221.98 3.89844ZM17.1777 3.55078C17.295 3.6683 17.4084 3.79026 17.5195 3.91504C17.4084 3.79025 17.295 3.6683 17.1777 3.55078ZM111.358 3.88574C111.357 3.89549 111.356 3.90525 111.354 3.91504C111.356 3.90525 111.357 3.89549 111.358 3.88574ZM198.369 2.9375C198.415 3.02768 198.459 3.11991 198.501 3.21484C198.597 3.43742 198.69 3.66131 198.781 3.88574L198.502 3.21484C198.46 3.1199 198.415 3.02769 198.369 2.9375ZM241.311 3.86035C241.329 3.80782 241.345 3.75459 241.361 3.70117C241.345 3.7546 241.329 3.80781 241.311 3.86035ZM221.861 3.77344C221.883 3.79879 221.905 3.82367 221.929 3.84766C221.905 3.82367 221.883 3.79879 221.861 3.77344ZM182.919 3.82031C182.848 3.7527 182.776 3.68595 182.703 3.62012C182.776 3.68596 182.848 3.7527 182.919 3.82031ZM111.389 3.69238C111.383 3.72436 111.378 3.75666 111.373 3.78906C111.378 3.75666 111.383 3.72436 111.389 3.69238ZM221.763 3.64844C221.782 3.67508 221.801 3.70115 221.821 3.72656C221.801 3.70115 221.782 3.67508 221.763 3.64844ZM128.588 3.68457C128.551 3.62976 128.515 3.57563 128.477 3.52246C128.515 3.57564 128.552 3.62976 128.588 3.68457ZM111.426 3.51074C111.418 3.54685 111.411 3.58343 111.403 3.62012C111.411 3.58343 111.418 3.54685 111.426 3.51074ZM221.663 3.48926C221.679 3.51835 221.695 3.54727 221.713 3.5752C221.695 3.54727 221.679 3.51836 221.663 3.48926ZM241.397 3.57324C241.41 3.52674 241.42 3.47986 241.431 3.43262C241.42 3.47987 241.41 3.52674 241.397 3.57324ZM17.126 3.50098C17.0651 3.44092 17.0039 3.38138 16.9414 3.32324C17.0038 3.38138 17.0651 3.44092 17.126 3.50098ZM182.5 3.44043C182.426 3.37692 182.352 3.31465 182.276 3.25293C182.352 3.31466 182.426 3.37691 182.5 3.44043ZM221.59 3.33984C221.604 3.37291 221.619 3.4057 221.635 3.4375C221.619 3.4057 221.604 3.37291 221.59 3.33984ZM111.47 3.33984C111.463 3.36472 111.457 3.38986 111.45 3.41504C111.457 3.38986 111.463 3.36472 111.47 3.33984ZM128.383 3.39648C128.346 3.34812 128.31 3.29988 128.271 3.25293C128.31 3.29989 128.346 3.34812 128.383 3.39648ZM16.9414 3.32324L16.7842 3.17969C16.7681 3.16543 16.7515 3.15183 16.7354 3.1377C16.8048 3.19852 16.8737 3.26018 16.9414 3.32324ZM221.519 3.14844C221.531 3.19054 221.545 3.23203 221.561 3.27246C221.545 3.23203 221.531 3.19054 221.519 3.14844ZM241.517 2.64258C241.517 2.86021 241.498 3.06892 241.464 3.27051C241.48 3.17575 241.493 3.07954 241.502 2.98145L241.518 2.64355L241.517 2.64258ZM111.523 3.16309C111.518 3.18025 111.512 3.19753 111.507 3.21484C111.512 3.19753 111.518 3.18025 111.523 3.16309ZM216.431 3.16992C216.429 3.16015 216.428 3.15035 216.426 3.14062C216.428 3.15035 216.429 3.16015 216.431 3.16992ZM128.177 3.14062C128.131 3.08674 128.084 3.03339 128.036 2.98145C128.084 3.03339 128.131 3.08674 128.177 3.14062ZM221.439 2.36523C221.433 2.42512 221.43 2.48598 221.43 2.54785L221.439 2.74707C221.451 2.87463 221.474 2.99696 221.507 3.11328C221.457 2.93745 221.431 2.74743 221.431 2.54688C221.431 2.48535 221.434 2.42478 221.439 2.36523ZM16.6582 3.07129C16.6039 3.02483 16.5494 2.97872 16.4941 2.93359C16.5494 2.97872 16.6039 3.02483 16.6582 3.07129ZM111.585 2.99121C111.575 3.01763 111.565 3.04447 111.556 3.07129C111.565 3.04447 111.575 3.01763 111.585 2.99121ZM182.05 3.07129C181.977 3.01462 181.903 2.95932 181.829 2.9043C181.903 2.95933 181.977 3.01461 182.05 3.07129ZM111.649 2.83691C111.638 2.86337 111.626 2.8901 111.615 2.91699C111.626 2.8901 111.638 2.86337 111.649 2.83691ZM16.4502 2.89746C16.387 2.84652 16.3233 2.7963 16.2588 2.74707C16.3232 2.79631 16.387 2.84651 16.4502 2.89746ZM127.956 2.89746C127.91 2.8502 127.865 2.80342 127.817 2.75781C127.865 2.80342 127.91 2.8502 127.956 2.89746ZM216.371 2.89648C216.367 2.8818 216.363 2.86711 216.359 2.85254C216.363 2.86711 216.367 2.88179 216.371 2.89648ZM28.4795 2.4248C28.5042 2.55688 28.518 2.6947 28.5195 2.83789C28.518 2.69469 28.5043 2.55691 28.4795 2.4248ZM111.729 2.67188C111.717 2.69363 111.706 2.71523 111.695 2.7373C111.706 2.71523 111.717 2.69363 111.729 2.67188ZM181.596 2.73438C181.518 2.67975 181.439 2.62706 181.36 2.57422C181.439 2.62707 181.518 2.67974 181.596 2.73438ZM16.1895 2.69531C16.1371 2.65606 16.0844 2.61724 16.0312 2.5791C16.0844 2.61725 16.1371 2.65606 16.1895 2.69531ZM127.687 2.63574C127.652 2.60398 127.616 2.5729 127.58 2.54199C127.616 2.5729 127.652 2.60398 127.687 2.63574ZM198.2 2.63086C198.159 2.56228 198.118 2.49491 198.074 2.42969C198.118 2.49492 198.159 2.56229 198.2 2.63086ZM216.285 2.62402C216.281 2.61182 216.275 2.6 216.271 2.58789C216.275 2.6 216.281 2.61182 216.285 2.62402ZM111.805 2.53027C111.794 2.54849 111.784 2.5665 111.773 2.58496C111.784 2.5665 111.794 2.54849 111.805 2.53027ZM15.9395 2.51367C15.8805 2.47241 15.8206 2.43251 15.7607 2.39258C15.8206 2.43252 15.8805 2.4724 15.9395 2.51367ZM45.4121 2.4834C45.4099 2.47065 45.4077 2.45796 45.4053 2.44531C45.4077 2.45797 45.4099 2.47065 45.4121 2.4834ZM82.835 2.47266C82.8248 2.44882 82.8153 2.42481 82.8047 2.40137C82.8153 2.42481 82.8248 2.44882 82.835 2.47266ZM111.9 2.37305C111.887 2.39381 111.873 2.41443 111.86 2.43555C111.873 2.41443 111.887 2.39381 111.9 2.37305ZM127.44 2.4248C127.389 2.38358 127.338 2.34332 127.285 2.30371C127.338 2.34332 127.389 2.38358 127.44 2.4248ZM181.126 2.41992C181.04 2.3655 180.953 2.31308 180.866 2.26074C180.953 2.31309 181.04 2.36549 181.126 2.41992ZM28.4688 2.37305C28.4581 2.3227 28.4466 2.27313 28.4326 2.22461C28.4466 2.27312 28.4581 2.3227 28.4688 2.37305ZM198.034 2.37305C197.994 2.31448 197.953 2.25687 197.91 2.20117C197.953 2.25688 197.994 2.31448 198.034 2.37305ZM216.175 2.36523C216.171 2.35698 216.166 2.34902 216.162 2.34082C216.166 2.34902 216.171 2.35698 216.175 2.36523ZM241.5 2.36035C241.496 2.32682 241.493 2.29355 241.487 2.26074C241.493 2.29354 241.496 2.32682 241.5 2.36035ZM15.7041 2.35449C15.6405 2.31269 15.5763 2.27177 15.5117 2.23145C15.5763 2.27178 15.6405 2.31268 15.7041 2.35449ZM45.3779 2.32617C45.3713 2.29963 45.3651 2.27313 45.3574 2.24707C45.3651 2.27314 45.3713 2.29962 45.3779 2.32617ZM82.7568 2.30371C82.7396 2.26865 82.7234 2.23331 82.7051 2.19922C82.7234 2.23331 82.7396 2.26865 82.7568 2.30371ZM221.468 2.18164C221.461 2.21283 221.457 2.24451 221.452 2.27637C221.457 2.24452 221.461 2.21282 221.468 2.18164ZM93.7793 2.25488C93.7701 2.23633 93.7615 2.2175 93.752 2.19922C93.7615 2.2175 93.77 2.23633 93.7793 2.25488ZM127.178 2.22461C127.131 2.19096 127.084 2.15743 127.036 2.125C127.084 2.15743 127.131 2.19096 127.178 2.22461ZM15.4473 2.19043C15.3924 2.15676 15.3368 2.12442 15.2812 2.0918C15.3368 2.12442 15.3924 2.15676 15.4473 2.19043ZM241.471 2.17871C241.464 2.1445 241.458 2.11047 241.449 2.07715C241.458 2.11047 241.464 2.1445 241.471 2.17871ZM104.562 2.16016C104.558 2.13186 104.554 2.10367 104.548 2.07617C104.554 2.10368 104.558 2.13184 104.562 2.16016ZM28.4072 2.14844C28.3938 2.10785 28.3809 2.06748 28.3652 2.02832C28.3809 2.06748 28.3938 2.10785 28.4072 2.14844ZM221.511 2.0127C221.497 2.057 221.486 2.10253 221.476 2.14844C221.486 2.10253 221.497 2.05699 221.511 2.0127ZM45.3184 2.13184C45.3096 2.10731 45.3017 2.08262 45.292 2.05859C45.3017 2.08262 45.3096 2.10731 45.3184 2.13184ZM197.854 2.13184C197.817 2.08468 197.779 2.03811 197.739 1.99316C197.779 2.03812 197.817 2.08467 197.854 2.13184ZM180.625 2.11816C180.549 2.07506 180.472 2.03373 180.396 1.99219C180.472 2.03374 180.549 2.07505 180.625 2.11816ZM93.6816 2.07324C93.6729 2.05817 93.6642 2.04319 93.6553 2.02832C93.6642 2.04318 93.6729 2.05817 93.6816 2.07324ZM82.6309 2.06934C82.6201 2.05139 82.6097 2.03327 82.5986 2.01562C82.6097 2.03327 82.6201 2.05139 82.6309 2.06934ZM168.29 1.87793C168.187 1.93078 168.086 1.98836 167.984 2.04395C168.258 1.89398 168.538 1.75088 168.825 1.62109L168.29 1.87793ZM241.436 2.03125C241.423 1.98685 241.411 1.94303 241.396 1.90039C241.411 1.94303 241.423 1.98684 241.436 2.03125ZM126.889 2.02832C126.839 1.99688 126.789 1.96674 126.738 1.93652C126.789 1.96674 126.839 1.99688 126.889 2.02832ZM15.1631 2.02246C15.1285 2.00278 15.0934 1.98413 15.0586 1.96484C15.0934 1.98414 15.1285 2.00277 15.1631 2.02246ZM221.569 1.85645C221.553 1.89374 221.54 1.93204 221.526 1.9707C221.54 1.93204 221.553 1.89374 221.569 1.85645ZM28.3369 1.96484C28.3204 1.92745 28.3038 1.89045 28.2852 1.85449C28.3038 1.89044 28.3204 1.92745 28.3369 1.96484ZM104.515 1.95605C104.511 1.9443 104.508 1.93249 104.504 1.9209C104.508 1.93249 104.511 1.9443 104.515 1.95605ZM45.2451 1.9541C45.2322 1.9266 45.2201 1.89883 45.2061 1.87207C45.2202 1.89883 45.2322 1.9266 45.2451 1.9541ZM93.5908 1.92676C93.578 1.90719 93.5659 1.88733 93.5527 1.86816C93.5659 1.88732 93.578 1.90719 93.5908 1.92676ZM197.672 1.91992C197.632 1.87698 197.592 1.83469 197.551 1.79395C197.592 1.8347 197.632 1.87697 197.672 1.91992ZM82.5215 1.90039C82.5056 1.87749 82.4901 1.85435 82.4736 1.83203C82.4901 1.85435 82.5056 1.87749 82.5215 1.90039ZM241.38 1.86035C241.365 1.82117 241.349 1.78265 241.332 1.74512C241.349 1.78266 241.365 1.82116 241.38 1.86035ZM126.598 1.85352C126.546 1.82458 126.494 1.79727 126.441 1.76953C126.494 1.79727 126.546 1.82457 126.598 1.85352ZM180.112 1.8418C180.032 1.801 179.95 1.76273 179.868 1.72363C179.95 1.76274 180.032 1.80099 180.112 1.8418ZM104.459 1.80469C104.452 1.78761 104.444 1.77058 104.437 1.75391C104.444 1.77059 104.452 1.78761 104.459 1.80469ZM221.649 1.69336C221.63 1.72824 221.613 1.76443 221.596 1.80078C221.613 1.76443 221.63 1.72823 221.649 1.69336ZM28.2393 1.77246C28.2231 1.7447 28.2069 1.71722 28.1895 1.69043C28.2069 1.71722 28.2231 1.7447 28.2393 1.77246ZM45.1445 1.76465C45.1336 1.74664 45.1228 1.72855 45.1113 1.71094C45.1229 1.72855 45.1336 1.74665 45.1445 1.76465ZM93.4775 1.76465C93.4642 1.74696 93.4511 1.72921 93.4375 1.71191C93.4512 1.7292 93.4642 1.74697 93.4775 1.76465ZM82.415 1.75684C82.3879 1.72263 82.3605 1.68892 82.332 1.65625C82.3605 1.68892 82.3879 1.72263 82.415 1.75684ZM215.761 1.75C215.725 1.7102 215.689 1.67144 215.651 1.63379C215.689 1.67144 215.725 1.71019 215.761 1.75ZM14.1084 1.49707C14.2786 1.57052 14.4465 1.64866 14.6123 1.73047C14.4465 1.64869 14.2786 1.57048 14.1084 1.49707ZM197.478 1.72461C197.44 1.68931 197.402 1.65459 197.362 1.62109C197.401 1.6546 197.44 1.6893 197.478 1.72461ZM112.51 1.6709C112.502 1.67723 112.496 1.68404 112.488 1.69043C112.496 1.68404 112.502 1.67723 112.51 1.6709ZM126.285 1.68848C126.238 1.66532 126.191 1.64334 126.144 1.62109C126.191 1.64335 126.238 1.66532 126.285 1.68848ZM104.393 1.6709C104.38 1.6489 104.369 1.62671 104.355 1.60547C104.369 1.62671 104.38 1.6489 104.393 1.6709ZM241.295 1.6709C241.282 1.64585 241.269 1.62089 241.255 1.59668C241.269 1.62089 241.282 1.64584 241.295 1.6709ZM221.738 1.55273C221.714 1.58831 221.69 1.62466 221.668 1.66211C221.69 1.62466 221.714 1.5883 221.738 1.55273ZM41.5996 1.4043C41.5329 1.47308 41.4707 1.54579 41.415 1.62402C41.4707 1.54577 41.5329 1.4731 41.5996 1.4043ZM93.3643 1.62402C93.3456 1.60226 93.3269 1.58063 93.3076 1.55957C93.3269 1.58062 93.3456 1.60227 93.3643 1.62402ZM45.0439 1.61523C45.0262 1.59136 45.008 1.56796 44.9893 1.54492C45.008 1.56795 45.0262 1.59137 45.0439 1.61523ZM28.1328 1.60938C28.1117 1.58039 28.09 1.55211 28.0674 1.52441C28.09 1.55211 28.1118 1.58039 28.1328 1.60938ZM112.646 1.55957C112.627 1.5742 112.608 1.58949 112.59 1.60449C112.608 1.58949 112.627 1.5742 112.646 1.55957ZM179.591 1.59375C179.509 1.55701 179.426 1.52235 179.343 1.4873C179.426 1.52235 179.509 1.557 179.591 1.59375ZM82.2666 1.58496C82.2423 1.55904 82.2176 1.53362 82.1924 1.50879C82.2176 1.53362 82.2423 1.55904 82.2666 1.58496ZM215.568 1.55371C215.53 1.51862 215.491 1.48511 215.45 1.45215C215.491 1.48511 215.53 1.51862 215.568 1.55371ZM197.268 1.54297C197.228 1.51167 197.188 1.48167 197.147 1.45215C197.188 1.48169 197.228 1.51166 197.268 1.54297ZM104.312 1.54004C104.292 1.51271 104.273 1.48591 104.252 1.45996C104.273 1.4859 104.292 1.51272 104.312 1.54004ZM241.218 1.53711C241.2 1.51019 241.183 1.48375 241.164 1.45801C241.183 1.48376 241.201 1.51018 241.218 1.53711ZM125.955 1.53516C125.906 1.5138 125.856 1.49407 125.806 1.47363C125.856 1.49407 125.906 1.5138 125.955 1.53516ZM112.782 1.45898C112.759 1.47515 112.737 1.4921 112.714 1.50879C112.737 1.4921 112.759 1.47515 112.782 1.45898ZM221.847 1.41309C221.82 1.4442 221.794 1.47586 221.77 1.50879C221.794 1.47587 221.82 1.44419 221.847 1.41309ZM44.9307 1.47656C44.9049 1.4477 44.878 1.41993 44.8506 1.39258C44.8781 1.41991 44.9049 1.44772 44.9307 1.47656ZM93.2246 1.47363C93.2129 1.46192 93.2014 1.44994 93.1895 1.43848C93.2014 1.44993 93.2128 1.46192 93.2246 1.47363ZM28.0127 1.45996C27.9906 1.43523 27.9678 1.41126 27.9443 1.3877C27.9677 1.41126 27.9906 1.43523 28.0127 1.45996ZM82.123 1.44336C82.0946 1.41733 82.0657 1.39187 82.0361 1.36719C82.0657 1.39187 82.0946 1.41733 82.123 1.44336ZM104.209 1.41016C104.188 1.38587 104.166 1.36184 104.144 1.33887C104.166 1.36182 104.188 1.38589 104.209 1.41016ZM125.632 1.4043C125.574 1.38223 125.515 1.36073 125.456 1.33984C125.515 1.36073 125.574 1.38223 125.632 1.4043ZM112.922 1.36719C112.908 1.37584 112.894 1.38472 112.881 1.39355C112.894 1.38472 112.908 1.37585 112.922 1.36719ZM197.063 1.39258C197.018 1.36138 196.971 1.33172 196.924 1.30273C196.971 1.33174 197.018 1.36137 197.063 1.39258ZM241.11 1.38867C241.095 1.37002 241.079 1.35191 241.063 1.33398C241.079 1.35192 241.095 1.37002 241.11 1.38867ZM215.358 1.37891C215.316 1.34689 215.271 1.3168 215.227 1.28711C215.271 1.31681 215.316 1.34689 215.358 1.37891ZM221.962 1.29199C221.935 1.31823 221.908 1.34518 221.883 1.37305C221.908 1.34519 221.935 1.31821 221.962 1.29199ZM179.044 1.36328C178.967 1.33312 178.888 1.30605 178.811 1.27734C178.888 1.30606 178.967 1.33311 179.044 1.36328ZM93.0879 1.34668C93.0728 1.33371 93.0574 1.32118 93.042 1.30859C93.0574 1.32117 93.0728 1.33372 93.0879 1.34668ZM44.7842 1.3291C44.761 1.30801 44.7372 1.28763 44.7129 1.26758C44.7372 1.28761 44.7609 1.30803 44.7842 1.3291ZM27.8691 1.31543C27.8472 1.29565 27.8247 1.27663 27.8018 1.25781C27.8247 1.27663 27.8472 1.29565 27.8691 1.31543ZM81.9551 1.30273C81.9283 1.28216 81.9007 1.26266 81.873 1.24316C81.9007 1.26266 81.9283 1.28216 81.9551 1.30273ZM113.058 1.28516C113.048 1.29064 113.039 1.29717 113.029 1.30273C113.039 1.29717 113.048 1.29064 113.058 1.28516ZM104.095 1.29102C104.068 1.26625 104.04 1.2428 104.012 1.21973C104.04 1.24278 104.068 1.26627 104.095 1.29102ZM125.288 1.28125C125.232 1.2627 125.174 1.24603 125.117 1.22852C125.174 1.24603 125.232 1.2627 125.288 1.28125ZM41.8828 1.16406C41.8352 1.19719 41.7892 1.23171 41.7451 1.26855C41.7892 1.2317 41.8352 1.1972 41.8828 1.16406ZM241.002 1.26855C240.984 1.25016 240.965 1.23235 240.945 1.21484C240.965 1.23236 240.984 1.25015 241.002 1.26855ZM222.083 1.18555C222.055 1.20829 222.027 1.23153 222 1.25586C222.027 1.23154 222.055 1.20828 222.083 1.18555ZM196.824 1.24316C196.786 1.22135 196.746 1.20104 196.707 1.18066C196.746 1.20106 196.786 1.22134 196.824 1.24316ZM92.9541 1.24023C92.9281 1.22087 92.9018 1.20188 92.875 1.18359C92.9018 1.20186 92.928 1.22089 92.9541 1.24023ZM113.227 1.19629C113.209 1.20527 113.191 1.21439 113.173 1.22363C113.191 1.21439 113.209 1.20527 113.227 1.19629ZM215.121 1.21973C215.078 1.19356 215.033 1.16955 214.987 1.14551C215.033 1.16955 215.078 1.19355 215.121 1.21973ZM44.6328 1.2041C44.6038 1.18251 44.5742 1.16176 44.5439 1.1416C44.5742 1.16173 44.6038 1.18253 44.6328 1.2041ZM27.7236 1.19629C27.697 1.17657 27.6694 1.15812 27.6416 1.13965C27.6694 1.15812 27.697 1.17657 27.7236 1.19629ZM81.7891 1.18555C81.7577 1.16529 81.7258 1.14584 81.6934 1.12695C81.7258 1.14584 81.7577 1.1653 81.7891 1.18555ZM103.962 1.18066C103.94 1.16386 103.917 1.14765 103.894 1.13184C103.917 1.14763 103.94 1.16388 103.962 1.18066ZM124.915 1.16797C124.855 1.1511 124.794 1.1359 124.732 1.12012C124.794 1.1359 124.855 1.15109 124.915 1.16797ZM178.484 1.16016C178.419 1.13802 178.352 1.11778 178.286 1.09668C178.352 1.11779 178.419 1.13802 178.484 1.16016ZM240.88 1.1582C240.86 1.14201 240.839 1.12662 240.818 1.11133C240.839 1.12663 240.86 1.142 240.88 1.1582ZM222.222 1.08496C222.192 1.10432 222.163 1.12362 222.135 1.14453C222.163 1.12364 222.192 1.1043 222.222 1.08496ZM92.8066 1.1377C92.7735 1.11676 92.7394 1.09743 92.7051 1.07812C92.7394 1.09741 92.7735 1.11678 92.8066 1.1377ZM196.583 1.11816C196.546 1.10083 196.508 1.08543 196.47 1.06934C196.508 1.08545 196.546 1.10082 196.583 1.11816ZM44.4766 1.09863C44.4406 1.07665 44.4038 1.05611 44.3662 1.03613C44.4038 1.05608 44.4406 1.07667 44.4766 1.09863ZM27.5615 1.08789C27.5269 1.06719 27.4912 1.04813 27.4551 1.0293C27.4912 1.04812 27.5269 1.0672 27.5615 1.08789ZM214.876 1.08691C214.826 1.06292 214.774 1.04193 214.722 1.02051C214.774 1.04193 214.826 1.06292 214.876 1.08691ZM103.817 1.08203C103.797 1.06977 103.777 1.05845 103.756 1.04688C103.777 1.05843 103.797 1.06978 103.817 1.08203ZM124.575 1.08008C124.474 1.05574 124.371 1.03316 124.267 1.01172C124.371 1.03316 124.474 1.05574 124.575 1.08008ZM81.6074 1.07812C81.574 1.06035 81.5394 1.04466 81.5049 1.02832C81.5394 1.04466 81.574 1.06036 81.6074 1.07812ZM113.545 1.05469C113.528 1.06118 113.512 1.0685 113.495 1.0752C113.512 1.06849 113.528 1.06118 113.545 1.05469ZM240.742 1.05859C240.719 1.04358 240.695 1.02957 240.671 1.01562C240.695 1.02957 240.719 1.04358 240.742 1.05859ZM222.377 0.992188C222.342 1.01051 222.308 1.02948 222.274 1.0498C222.308 1.0295 222.342 1.01049 222.377 0.992188ZM92.6357 1.04004C92.6012 1.0221 92.5659 1.00554 92.5303 0.989258C92.5659 1.00552 92.6012 1.02212 92.6357 1.04004ZM113.728 0.990234C113.702 0.998579 113.677 1.00683 113.652 1.01562C113.677 1.00683 113.702 0.998582 113.728 0.990234ZM196.331 1.0127C196.29 0.99722 196.247 0.983781 196.205 0.969727C196.247 0.983792 196.29 0.997208 196.331 1.0127ZM44.2979 1C44.2556 0.979443 44.212 0.961363 44.168 0.943359C44.212 0.961339 44.2556 0.979471 44.2979 1ZM124.197 0.99707C124.113 0.98035 124.028 0.966039 123.942 0.951172C124.028 0.96604 124.113 0.980349 124.197 0.99707ZM103.659 0.996094C103.64 0.986852 103.621 0.978423 103.602 0.969727C103.621 0.978407 103.64 0.986868 103.659 0.996094ZM27.3877 0.995117C27.3523 0.978297 27.316 0.963297 27.2793 0.948242C27.316 0.96329 27.3523 0.978305 27.3877 0.995117ZM81.4131 0.985352C81.3801 0.971319 81.3463 0.959033 81.3125 0.946289C81.3463 0.959032 81.3801 0.97132 81.4131 0.985352ZM177.922 0.984375C177.854 0.964994 177.785 0.948971 177.717 0.930664C177.785 0.948975 177.854 0.96499 177.922 0.984375ZM240.599 0.974609C240.567 0.95861 240.535 0.944927 240.502 0.930664C240.535 0.944933 240.567 0.958603 240.599 0.974609ZM214.606 0.973633C214.554 0.954673 214.501 0.939295 214.447 0.922852C214.501 0.939297 214.554 0.95467 214.606 0.973633ZM222.556 0.910156C222.51 0.928251 222.466 0.947515 222.423 0.96875C222.466 0.947543 222.51 0.928227 222.556 0.910156ZM92.4658 0.960938C92.4309 0.946243 92.3953 0.933025 92.3594 0.919922C92.3953 0.93301 92.4309 0.94626 92.4658 0.960938ZM12.5039 0.941406C12.4775 0.934293 12.4512 0.926865 12.4248 0.919922C12.4512 0.926869 12.4775 0.934289 12.5039 0.941406ZM103.514 0.931641C103.472 0.914961 103.428 0.899934 103.385 0.885742C103.428 0.899907 103.472 0.914992 103.514 0.931641ZM196.073 0.926758C196.034 0.915285 195.993 0.905771 195.953 0.895508C195.993 0.905779 196.034 0.915276 196.073 0.926758ZM123.779 0.922852C123.716 0.912883 123.653 0.904505 123.589 0.895508C123.653 0.904505 123.716 0.912883 123.779 0.922852ZM44.1113 0.919922C44.0603 0.900687 44.0083 0.882945 43.9551 0.867188C44.0083 0.882925 44.0603 0.900713 44.1113 0.919922ZM27.1934 0.913086C27.1347 0.891854 27.0744 0.873207 27.0127 0.856445C27.0744 0.873198 27.1347 0.891866 27.1934 0.913086ZM81.2061 0.907227C81.1699 0.895388 81.1328 0.886369 81.0957 0.875977C81.1328 0.886369 81.1699 0.895389 81.2061 0.907227ZM114.048 0.898438C114.036 0.901303 114.024 0.90427 114.013 0.907227C114.024 0.904269 114.036 0.901304 114.048 0.898438ZM240.438 0.902344C240.406 0.889883 240.373 0.879962 240.34 0.869141C240.373 0.879965 240.406 0.889879 240.438 0.902344ZM222.743 0.845703C222.689 0.861202 222.636 0.877705 222.584 0.897461C222.636 0.877735 222.689 0.86118 222.743 0.845703ZM92.2822 0.891602C92.2419 0.87846 92.2007 0.867586 92.1592 0.856445C92.2007 0.867573 92.2419 0.878476 92.2822 0.891602ZM214.322 0.884766C214.269 0.870766 214.215 0.86019 214.16 0.848633C214.215 0.860192 214.269 0.870764 214.322 0.884766ZM103.354 0.875C103.313 0.862045 103.27 0.851491 103.227 0.84082C103.27 0.851472 103.313 0.862069 103.354 0.875ZM123.387 0.867188C123.324 0.859405 123.26 0.853548 123.196 0.84668C123.26 0.853548 123.324 0.859405 123.387 0.867188ZM195.791 0.855469C195.727 0.842175 195.662 0.832621 195.597 0.822266C195.662 0.832628 195.727 0.842165 195.791 0.855469ZM43.2422 0.766602C43.479 0.766602 43.7041 0.796931 43.9131 0.854492C43.7745 0.816275 43.629 0.789769 43.4775 0.776367L43.2422 0.766602ZM27.0039 0.853516C26.9488 0.838793 26.8923 0.827467 26.835 0.816406C26.8923 0.827461 26.9489 0.838802 27.0039 0.853516ZM80.998 0.848633C80.9522 0.837613 80.9055 0.829142 80.8584 0.820312C80.9055 0.829142 80.9522 0.837614 80.998 0.848633ZM223.12 0.774414C222.993 0.785993 222.87 0.809592 222.752 0.842773C222.929 0.792984 223.118 0.766602 223.314 0.766602L223.12 0.774414ZM240.259 0.842773C240.232 0.835479 240.205 0.830499 240.178 0.824219C240.205 0.8305 240.232 0.835477 240.259 0.842773ZM92.0938 0.837891C92.0505 0.827562 92.0064 0.819672 91.9619 0.811523C92.0064 0.819665 92.0505 0.827573 92.0938 0.837891ZM114.452 0.819336C114.424 0.823434 114.397 0.82746 114.369 0.832031C114.397 0.827459 114.424 0.823435 114.452 0.819336ZM177.332 0.831055C177.289 0.820957 177.245 0.813386 177.202 0.803711C177.245 0.813388 177.289 0.820955 177.332 0.831055ZM214.022 0.820312C213.996 0.815817 213.969 0.813501 213.942 0.80957C213.969 0.813501 213.996 0.815817 214.022 0.820312ZM195.215 0.777344C195.319 0.784382 195.421 0.794748 195.521 0.808594C195.421 0.794799 195.32 0.78438 195.216 0.777344L194.893 0.766602L195.215 0.777344ZM11.9473 0.805664C11.8658 0.787583 11.784 0.771411 11.7021 0.754883C11.784 0.771422 11.8658 0.787572 11.9473 0.805664ZM240.073 0.800781C240.06 0.798461 240.047 0.797989 240.033 0.795898C240.047 0.797989 240.06 0.798461 240.073 0.800781ZM91.4707 0.766602C91.6176 0.766933 91.7589 0.777711 91.8945 0.798828C91.827 0.788299 91.7579 0.779861 91.6875 0.774414L91.4707 0.766602ZM102.805 0.773438C102.869 0.77806 102.932 0.784809 102.994 0.793945C102.932 0.784845 102.869 0.77806 102.806 0.773438L102.609 0.766602L102.805 0.773438ZM122.553 0.791016C122.423 0.783391 122.291 0.778585 122.158 0.774414C122.291 0.778585 122.423 0.78339 122.553 0.791016ZM80.5391 0.776367C80.5545 0.777557 80.5697 0.779842 80.585 0.78125C80.57 0.779872 80.5551 0.777536 80.54 0.776367L80.2871 0.766602L80.5391 0.776367ZM176.742 0.706055C176.689 0.69624 176.636 0.689856 176.583 0.680664C176.636 0.689858 176.689 0.696238 176.742 0.706055ZM11.3516 0.6875C11.2707 0.673426 11.1895 0.662016 11.1084 0.649414C11.1895 0.662024 11.2707 0.673416 11.3516 0.6875ZM176.146 0.609375C176.077 0.599922 176.009 0.594369 175.94 0.585938C176.009 0.59437 176.077 0.599921 176.146 0.609375ZM10.7646 0.597656C10.6646 0.584706 10.5642 0.575215 10.4639 0.564453C10.5642 0.575222 10.6646 0.584698 10.7646 0.597656ZM112.813 24.1445C112.88 24.163 112.949 24.1786 113.02 24.1914C112.949 24.1786 112.88 24.163 112.813 24.1445ZM111.667 23.3223C111.701 23.3739 111.736 23.4238 111.774 23.4717C111.736 23.4238 111.701 23.3739 111.667 23.3223ZM129.689 23.3623C129.704 23.3248 129.715 23.2854 129.727 23.2451C129.715 23.2854 129.704 23.3248 129.689 23.3623ZM191.712 22.5908C191.723 22.6476 191.737 22.7031 191.753 22.7578C191.737 22.7032 191.723 22.6476 191.712 22.5908ZM133.997 17.1416C134.005 17.1639 134.015 17.1858 134.023 17.208C134.015 17.1858 134.005 17.1639 133.997 17.1416ZM124.893 10.0664C124.91 10.0325 124.926 9.99793 124.942 9.96289C124.926 9.99793 124.91 10.0325 124.893 10.0664ZM125.083 9.60254C125.094 9.57006 125.103 9.53716 125.113 9.50391C125.104 9.53715 125.094 9.57006 125.083 9.60254ZM129.605 6.47168C129.593 6.39071 129.581 6.31056 129.567 6.23145C129.581 6.31055 129.593 6.39071 129.605 6.47168ZM198.362 2.92383C198.319 2.83902 198.274 2.75622 198.228 2.67578C198.274 2.75622 198.319 2.83903 198.362 2.92383Z" fill="white"/>
</svg>
