<svg width="22" height="22" viewBox="0 0 22 22" fill="none" xmlns="http://www.w3.org/2000/svg">
<path d="M17.671 3.52894C21.5763 7.43418 21.5763 13.7658 17.671 17.6711C13.7658 21.5763 7.43413 21.5763 3.52891 17.6711C-0.376336 13.7658 -0.376336 7.43416 3.52891 3.52894C7.43415 -0.376305 13.7658 -0.376305 17.671 3.52894" stroke="#BABABE" stroke-width="1.2" stroke-linecap="round" stroke-linejoin="round"/>
<path d="M12.8101 6.51547C14.0307 7.73607 14.0307 9.71507 12.8101 10.9357C11.5895 12.1563 9.61054 12.1563 8.38994 10.9357C7.16934 9.71507 7.16934 7.73607 8.38994 6.51547C9.61054 5.29487 11.5895 5.29487 12.8101 6.51547" stroke="#BABABE" stroke-width="1.2" stroke-linecap="round" stroke-linejoin="round"/>
<path d="M16.9411 18.3311C15.3467 16.6522 13.0978 15.6 10.6 15.6C8.10224 15.6 5.85336 16.6522 4.25891 18.3322" stroke="#BABABE" stroke-width="1.2" stroke-linecap="round" stroke-linejoin="round"/>
</svg>
