<svg width="24" height="24" viewBox="0 0 24 24" fill="none" xmlns="http://www.w3.org/2000/svg">
<path d="M11.994 20.5042C11.7248 20.5042 11.4545 20.4556 11.183 20.3584C10.9113 20.2611 10.6699 20.1088 10.4588 19.9017L8.72175 18.3147C6.96309 16.7098 5.36925 15.1047 3.94025 13.4992C2.51125 11.8935 1.79675 10.1104 1.79675 8.14992C1.79675 6.52359 2.33967 5.16551 3.4255 4.07567C4.51134 2.98567 5.8675 2.44067 7.494 2.44067C8.36934 2.44067 9.19667 2.61917 9.976 2.97617C10.7553 3.33334 11.428 3.82892 11.994 4.46292C12.56 3.82892 13.2327 3.33334 14.012 2.97617C14.7913 2.61917 15.6187 2.44067 16.494 2.44067C18.122 2.44067 19.4815 2.98567 20.5725 4.07567C21.6637 5.16551 22.2093 6.52359 22.2093 8.14992C22.2093 10.1104 21.4959 11.8977 20.0693 13.5117C18.6426 15.1255 17.0333 16.7368 15.2413 18.3457L13.5353 19.9074C13.3241 20.1148 13.0818 20.2661 12.8083 20.3614C12.5346 20.4566 12.2632 20.5042 11.994 20.5042ZM11.0023 6.77992C10.5428 6.12042 10.035 5.61151 9.479 5.25317C8.923 4.89484 8.26192 4.71567 7.49575 4.71567C6.51742 4.71567 5.70217 5.04201 5.05 5.69467C4.39784 6.34751 4.07175 7.16592 4.07175 8.14992C4.07175 9.00892 4.37709 9.92159 4.98775 10.8879C5.59842 11.8544 6.32875 12.7919 7.17875 13.7004C8.02875 14.6091 8.9035 15.4598 9.803 16.2527C10.7025 17.0457 11.4328 17.6982 11.994 18.2102C12.5567 17.6935 13.2886 17.0389 14.1898 16.2464C15.0909 15.4538 15.9673 14.6034 16.8188 13.6954C17.6704 12.7873 18.4026 11.8516 19.0153 10.8884C19.6279 9.92542 19.9343 9.01259 19.9343 8.14992C19.9343 7.16592 19.6069 6.34751 18.9523 5.69467C18.2974 5.04201 17.479 4.71567 16.497 4.71567C15.7277 4.71567 15.066 4.89484 14.512 5.25317C13.958 5.61151 13.4513 6.12042 12.9918 6.77992C12.8699 6.95842 12.722 7.09234 12.548 7.18167C12.374 7.27101 12.1893 7.31567 11.994 7.31567C11.7987 7.31567 11.6148 7.27101 11.4423 7.18167C11.2696 7.09234 11.1229 6.95842 11.0023 6.77992Z" fill="#757575"/>
</svg>
